<?xml version="1.0" encoding="UTF-8"?>
<svg id="Layer_2" data-name="Layer 2" xmlns="http://www.w3.org/2000/svg" viewBox="0 0 95 95">
  <defs>
    <style>
      .cls-1 {
        fill: #4d2f2e;
        stroke-width: 0px;
      }
    </style>
  </defs>
  <g id="Layer_1-2" data-name="Layer 1">
    <path id="FiftyFiftyDark" class="cls-1" d="M45.21,27.08c-.23-1.19-.69-2.16-1.39-2.89-.7-.73-1.71-1.09-3.03-1.09s-2.36.36-3.06,1.09c-.7.73-1.16,1.69-1.39,2.89-.23,1.19-.34,2.65-.34,4.37s.11,3.26.34,4.47c.23,1.2.69,2.17,1.39,2.9.7.73,1.72,1.09,3.06,1.09s2.33-.36,3.03-1.09c.7-.73,1.16-1.7,1.39-2.9.23-1.2.34-2.69.34-4.47s-.11-3.17-.34-4.37ZM45.21,27.08c-.23-1.19-.69-2.16-1.39-2.89-.7-.73-1.71-1.09-3.03-1.09s-2.36.36-3.06,1.09c-.7.73-1.16,1.69-1.39,2.89-.23,1.19-.34,2.65-.34,4.37s.11,3.26.34,4.47c.23,1.2.69,2.17,1.39,2.9.7.73,1.72,1.09,3.06,1.09s2.33-.36,3.03-1.09c.7-.73,1.16-1.7,1.39-2.9.23-1.2.34-2.69.34-4.47s-.11-3.17-.34-4.37ZM45.21,27.08c-.23-1.19-.69-2.16-1.39-2.89-.7-.73-1.71-1.09-3.03-1.09s-2.36.36-3.06,1.09c-.7.73-1.16,1.69-1.39,2.89-.23,1.19-.34,2.65-.34,4.37s.11,3.26.34,4.47c.23,1.2.69,2.17,1.39,2.9.7.73,1.72,1.09,3.06,1.09s2.33-.36,3.03-1.09c.7-.73,1.16-1.7,1.39-2.9.23-1.2.34-2.69.34-4.47s-.11-3.17-.34-4.37ZM45.21,27.08c-.23-1.19-.69-2.16-1.39-2.89-.7-.73-1.71-1.09-3.03-1.09s-2.36.36-3.06,1.09c-.7.73-1.16,1.69-1.39,2.89-.23,1.19-.34,2.65-.34,4.37s.11,3.26.34,4.47c.23,1.2.69,2.17,1.39,2.9.7.73,1.72,1.09,3.06,1.09s2.33-.36,3.03-1.09c.7-.73,1.16-1.7,1.39-2.9.23-1.2.34-2.69.34-4.47s-.11-3.17-.34-4.37ZM47.5,0C21.27,0,0,21.27,0,47.5s21.27,47.5,47.5,47.5,47.5-21.27,47.5-47.5S73.73,0,47.5,0ZM34.98,23.5c1.1-1.9,3.04-2.86,5.8-2.86s4.67.95,5.77,2.86c1.1,1.9,1.66,4.55,1.66,7.95s-.55,6.13-1.66,8.05c-1.1,1.91-3.03,2.87-5.77,2.87s-4.7-.96-5.8-2.87c-1.11-1.91-1.66-4.6-1.66-8.05s.55-6.04,1.66-7.95ZM17.41,40.82c-1.28-1.07-2.06-2.49-2.34-4.26h2.63c.26,1.12.8,2,1.63,2.63.83.63,1.87.95,3.14.95,1.56,0,2.73-.47,3.52-1.41.79-.94,1.18-2.18,1.18-3.71s-.4-2.73-1.18-3.57c-.79-.84-1.95-1.26-3.49-1.26-1.05,0-1.96.25-2.74.75-.78.5-1.35,1.19-1.7,2.06h-2.54v-12.07h12.87v2.37h-10.39v6.75c.45-.63,1.12-1.15,2.01-1.55.89-.4,1.85-.61,2.87-.61,1.64,0,2.97.34,3.99,1.02,1.02.68,1.76,1.56,2.2,2.63.44,1.07.67,2.21.67,3.42,0,1.42-.27,2.69-.8,3.82-.53,1.12-1.35,2.01-2.44,2.66-1.09.65-2.45.98-4.07.98-2.07,0-3.75-.53-5.03-1.6ZM25.96,71.95l-1.7-1.62,44.84-47.01,1.7,1.62-44.84,47.01ZM63.95,69.56c-.53,1.12-1.35,2.01-2.44,2.66-1.09.65-2.45.98-4.07.98-2.07,0-3.75-.53-5.03-1.6-1.28-1.07-2.06-2.49-2.34-4.26h2.63c.26,1.12.8,2,1.63,2.63.83.63,1.87.95,3.14.95,1.56,0,2.73-.47,3.52-1.4.79-.94,1.18-2.18,1.18-3.71s-.39-2.73-1.18-3.57c-.79-.84-1.95-1.26-3.49-1.26-1.04,0-1.96.25-2.74.75-.78.5-1.35,1.19-1.7,2.06h-2.54v-12.07h12.87v2.37h-10.39v6.75c.45-.63,1.12-1.15,2.01-1.55.89-.4,1.84-.61,2.87-.61,1.64,0,2.97.34,3.99,1.02s1.76,1.56,2.21,2.63c.44,1.07.66,2.21.66,3.42,0,1.42-.27,2.69-.8,3.82ZM75.79,73.14c-2.76,0-4.7-.96-5.8-2.87-1.11-1.91-1.66-4.6-1.66-8.05s.55-6.04,1.66-7.94c1.1-1.9,3.04-2.86,5.8-2.86s4.66.95,5.77,2.86c1.1,1.9,1.66,4.55,1.66,7.94s-.55,6.14-1.66,8.05c-1.11,1.91-3.03,2.87-5.77,2.87ZM78.82,54.97c-.7-.73-1.71-1.09-3.03-1.09s-2.36.37-3.06,1.09c-.7.73-1.16,1.69-1.39,2.89-.23,1.19-.34,2.65-.34,4.36s.11,3.27.34,4.47c.23,1.2.69,2.17,1.39,2.9.7.73,1.72,1.09,3.06,1.09s2.33-.36,3.03-1.09c.7-.73,1.16-1.7,1.39-2.9.23-1.2.34-2.69.34-4.47s-.11-3.17-.34-4.36c-.23-1.19-.69-2.16-1.39-2.89ZM37.72,38.81c.7.73,1.72,1.09,3.06,1.09s2.33-.36,3.03-1.09c.7-.73,1.16-1.7,1.39-2.9.23-1.2.34-2.69.34-4.47s-.11-3.17-.34-4.37c-.23-1.19-.69-2.16-1.39-2.89-.7-.73-1.71-1.09-3.03-1.09s-2.36.36-3.06,1.09c-.7.73-1.16,1.69-1.39,2.89-.23,1.19-.34,2.65-.34,4.37s.11,3.26.34,4.47c.23,1.2.69,2.17,1.39,2.9ZM45.21,27.08c-.23-1.19-.69-2.16-1.39-2.89-.7-.73-1.71-1.09-3.03-1.09s-2.36.36-3.06,1.09c-.7.73-1.16,1.69-1.39,2.89-.23,1.19-.34,2.65-.34,4.37s.11,3.26.34,4.47c.23,1.2.69,2.17,1.39,2.9.7.73,1.72,1.09,3.06,1.09s2.33-.36,3.03-1.09c.7-.73,1.16-1.7,1.39-2.9.23-1.2.34-2.69.34-4.47s-.11-3.17-.34-4.37ZM45.21,27.08c-.23-1.19-.69-2.16-1.39-2.89-.7-.73-1.71-1.09-3.03-1.09s-2.36.36-3.06,1.09c-.7.73-1.16,1.69-1.39,2.89-.23,1.19-.34,2.65-.34,4.37s.11,3.26.34,4.47c.23,1.2.69,2.17,1.39,2.9.7.73,1.72,1.09,3.06,1.09s2.33-.36,3.03-1.09c.7-.73,1.16-1.7,1.39-2.9.23-1.2.34-2.69.34-4.47s-.11-3.17-.34-4.37Z"/>
  </g>
</svg>