<?xml version="1.0" encoding="UTF-8"?>
<svg id="Layer_2" data-name="Layer 2" xmlns="http://www.w3.org/2000/svg" viewBox="0 0 196.29 180.44">
  <defs>
    <style>
      .cls-1 {
        fill: #dfdac4;
        stroke: #4d2f2e;
        stroke-miterlimit: 10;
        stroke-width: 5px;
      }

      .cls-2 {
        fill: #4d2f2e;
        stroke-width: 0px;
      }
    </style>
  </defs>
  <g id="Layer_1-2" data-name="Layer 1">
    <g id="Love_0pct">
      <path class="cls-1" d="M191.31,78.69c-11.29,48-93.17,98.81-93.17,98.81,0,0-81.87-50.82-93.17-98.81-7.21-30.65,0-76.14,39.53-76.19,39.53-.04,53.64,33.84,53.64,33.84,0,0,14.12-33.88,53.64-33.84,39.53.04,46.74,45.54,39.53,76.19Z"/>
      <g>
        <path class="cls-2" d="M66.89,68.32c.13-.06.46-.1.98-.1,2.28.59,4.39,1.33,6.35,2.25,1.95.91,3.66,2.12,5.13,3.61,1.46,1.5,2.6,3.37,3.42,5.62.81,2.25,1.22,5.03,1.22,8.35,0,2.73-.39,5.29-1.17,7.67-.78,2.38-1.94,4.44-3.47,6.2-1.53,1.76-3.43,3.14-5.71,4.15-2.28,1.01-4.88,1.51-7.81,1.51-3.19,0-6.05-.54-8.59-1.61s-4.69-2.51-6.45-4.3c-1.76-1.79-3.11-3.87-4.05-6.25-.94-2.38-1.42-4.87-1.42-7.47,0-1.63.2-3.32.59-5.08s1.04-3.45,1.95-5.08c.91-1.63,2.1-3.12,3.56-4.49s3.27-2.51,5.42-3.42c1.24-.39,2.47-.75,3.71-1.07,1.24-.33,2.47-.68,3.71-1.07,1.24,0,2.12.2,2.64.59ZM65.82,75.25l-3.61.98c-1.82.39-3.32,1.03-4.49,1.9s-2.1,1.86-2.78,2.93-1.17,2.21-1.46,3.42c-.29,1.21-.44,2.36-.44,3.47,0,1.24.2,2.49.59,3.76s.99,2.46,1.81,3.56c.81,1.11,1.82,2.08,3.03,2.93,1.2.85,2.62,1.46,4.25,1.86h2.93c.2,0,.49.02.88.05.39.03.89-.02,1.51-.15.62-.13,1.38-.44,2.29-.93.91-.49,1.99-1.22,3.22-2.2,2.21-3.06,3.32-6.12,3.32-9.18,0-2.08-.54-4.07-1.61-5.96-1.07-1.89-2.72-3.58-4.93-5.08l-4-.98-.49-.39Z"/>
        <path class="cls-2" d="M100.29,64.71l.39-.2c.65-.59,1.4-.88,2.25-.88,2.99.85,5.24,2.46,6.74,4.83,1.5,2.38,2.25,4.93,2.25,7.67,0,1.17-.2,2.39-.59,3.66s-1.01,2.41-1.86,3.42c-.85,1.01-1.94,1.84-3.27,2.49-1.33.65-2.98.98-4.93.98-1.56,0-2.96-.31-4.2-.93-1.24-.62-2.26-1.46-3.08-2.54-.81-1.07-1.43-2.31-1.86-3.71-.42-1.4-.63-2.88-.63-4.44,0-1.04.16-2.13.49-3.27.33-1.14.8-2.2,1.42-3.17.62-.98,1.4-1.81,2.34-2.49.94-.68,2.03-1.09,3.27-1.22.2,0,.39-.02.59-.05.2-.03.42-.08.68-.15ZM102.73,72.03l-2.44.59c-.2.07-.42.42-.68,1.07-.26.65-.39,1.33-.39,2.05s.11,1.33.34,1.86c.23.52.76.78,1.61.78.78,0,1.82-.33,3.12-.98-.13-.46-.28-1.27-.44-2.44-.16-1.17-.54-2.12-1.12-2.83-.07,0-.1-.03-.1-.1h.1ZM131.25,62.56c.52-.91,1.14-1.55,1.86-1.9.72-.36,1.43-.54,2.15-.54,1.11,0,2.07.36,2.88,1.07.81.72,1.22,1.76,1.22,3.12,0,.78-.13,1.46-.39,2.05-5.01,8.14-10.01,16.33-14.99,24.56-4.98,8.24-9.36,16.75-13.13,25.54-1.24,1.24-2.54,1.86-3.91,1.86-.91,0-1.81-.34-2.69-1.03s-1.32-1.84-1.32-3.47c0-.46.03-.81.1-1.07,3.91-8.98,8.32-17.58,13.23-25.78,4.92-8.2,9.91-16.34,14.99-24.41ZM138.38,94l.39-.2c.65-.59,1.4-.88,2.25-.88,2.99.85,5.24,2.46,6.74,4.83,1.5,2.38,2.25,4.93,2.25,7.67,0,1.17-.2,2.39-.59,3.66s-1.01,2.41-1.86,3.42c-.85,1.01-1.94,1.84-3.27,2.49-1.33.65-2.98.98-4.93.98-1.56,0-2.96-.31-4.2-.93-1.24-.62-2.26-1.46-3.08-2.54-.81-1.07-1.43-2.31-1.86-3.71-.42-1.4-.63-2.88-.63-4.44,0-1.04.16-2.13.49-3.27.33-1.14.8-2.2,1.42-3.17.62-.98,1.4-1.81,2.34-2.49.94-.68,2.03-1.09,3.27-1.22.2,0,.39-.02.59-.05.2-.03.42-.08.68-.15ZM140.82,101.33l-2.44.59c-.2.07-.42.42-.68,1.07-.26.65-.39,1.33-.39,2.05s.11,1.33.34,1.86c.23.52.76.78,1.61.78.78,0,1.82-.33,3.12-.98-.13-.46-.28-1.27-.44-2.44-.16-1.17-.54-2.12-1.12-2.83-.07,0-.1-.03-.1-.1h.1Z"/>
      </g>
    </g>
  </g>
</svg>