<?xml version="1.0" encoding="UTF-8"?>
<svg id="Layer_2" data-name="Layer 2" xmlns="http://www.w3.org/2000/svg" viewBox="0 0 205 188.41">
  <defs>
    <style>
      .cls-1 {
        fill: #dfdac4;
      }

      .cls-1, .cls-2 {
        stroke: #4d2f2e;
        stroke-miterlimit: 10;
        stroke-width: 5px;
      }

      .cls-2, .cls-3 {
        fill: #4d2f2e;
      }

      .cls-3 {
        stroke-width: 0px;
      }
    </style>
  </defs>
  <g id="Layer_1-2" data-name="Layer 1">
    <g id="Love_10pct">
      <path class="cls-2" d="M142.64,156.11c-3.8,3.16-7.52,6.12-11.07,8.86-5.8,4.48-11.14,8.35-15.62,11.5-8.15,5.71-13.45,9-13.45,9,0,0-5.3-3.29-13.45-9-4.48-3.15-9.82-7.02-15.62-11.5-3.55-2.74-7.27-5.7-11.07-8.86h80.28Z"/>
      <path class="cls-1" d="M199.91,82.15c-6.26,26.62-33.27,54.06-57.27,73.96H62.36c-24-19.9-51.01-47.34-57.27-73.96C-2.45,50.11,5.09,2.54,46.41,2.5c41.33-.05,56.09,35.38,56.09,35.38,0,0,14.76-35.43,56.09-35.38,41.32.04,48.86,47.61,41.32,79.65Z"/>
      <g>
        <path class="cls-3" d="M46.34,77.46c-.18.06-.44.09-.79.09-1.17,0-2.1-.37-2.77-1.1-.67-.73-1.01-1.51-1.01-2.33s.37-1.6,1.1-2.33c.73-.73,1.67-1.39,2.81-1.98,1.14-.58,2.39-1.04,3.74-1.36,1.35-.32,2.64-.48,3.87-.48,1.76,0,3.09.34,4,1.01.91.67,1.58,1.52,2.02,2.55.44,1.03.69,2.1.75,3.21.06,1.11.09,2.11.09,2.99v2.9c0,5.57-.21,11.09-.62,16.57-.41,5.48-.62,11.24-.62,17.27,0,.88-.35,1.63-1.05,2.24s-1.47.92-2.29.92c-.88,0-1.71-.26-2.5-.79s-1.25-1.44-1.36-2.72c0-2.34.04-4.58.13-6.72.09-2.14.19-4.34.31-6.59.12-2.25.28-4.64.48-7.16.2-2.52.42-5.33.66-8.44.06-.58.09-1.16.09-1.71v-1.63c0-1.17-.04-2.29-.13-3.34s-.28-2.17-.57-3.34c-.65.18-1.66.51-3.03,1.01-1.38.5-2.48.92-3.3,1.27Z"/>
        <path class="cls-3" d="M88.79,74.47c.12-.06.41-.09.88-.09,2.05.53,3.96,1.2,5.71,2.02,1.76.82,3.3,1.9,4.61,3.25,1.32,1.35,2.34,3.03,3.08,5.05.73,2.02,1.1,4.53,1.1,7.51,0,2.46-.35,4.76-1.05,6.9-.7,2.14-1.74,4-3.12,5.58-1.38,1.58-3.09,2.83-5.14,3.74-2.05.91-4.39,1.36-7.03,1.36-2.87,0-5.45-.48-7.73-1.45s-4.22-2.25-5.8-3.87c-1.58-1.61-2.8-3.49-3.65-5.62-.85-2.14-1.27-4.38-1.27-6.72,0-1.46.18-2.99.53-4.57s.94-3.11,1.76-4.57c.82-1.46,1.89-2.81,3.21-4.04s2.94-2.25,4.88-3.08c1.11-.35,2.23-.67,3.34-.97,1.11-.29,2.23-.62,3.34-.97,1.11,0,1.9.18,2.37.53ZM87.82,80.71l-3.25.88c-1.64.35-2.99.92-4.04,1.71s-1.89,1.67-2.5,2.64-1.05,1.99-1.32,3.08c-.26,1.08-.4,2.12-.4,3.12,0,1.11.18,2.24.53,3.38s.89,2.21,1.63,3.21c.73,1,1.64,1.88,2.72,2.64,1.08.76,2.36,1.32,3.82,1.67h2.64c.18,0,.44.01.79.04.35.03.8-.01,1.36-.13.56-.12,1.24-.4,2.07-.83.82-.44,1.79-1.1,2.9-1.98,1.99-2.75,2.99-5.51,2.99-8.26,0-1.88-.48-3.66-1.45-5.36-.97-1.7-2.45-3.22-4.44-4.57l-3.6-.88-.44-.35Z"/>
        <path class="cls-3" d="M118.85,71.22l.35-.18c.58-.53,1.26-.79,2.02-.79,2.69.76,4.72,2.21,6.06,4.35,1.35,2.14,2.02,4.44,2.02,6.9,0,1.05-.18,2.15-.53,3.3s-.91,2.17-1.67,3.08c-.76.91-1.74,1.66-2.94,2.24-1.2.59-2.68.88-4.44.88-1.41,0-2.67-.28-3.78-.83-1.11-.56-2.04-1.32-2.77-2.29-.73-.97-1.29-2.08-1.67-3.34-.38-1.26-.57-2.59-.57-4,0-.94.15-1.92.44-2.94.29-1.02.72-1.98,1.27-2.86.56-.88,1.26-1.63,2.11-2.24.85-.62,1.83-.98,2.94-1.1.18,0,.35-.01.53-.04.18-.03.38-.07.62-.13ZM121.04,77.81l-2.2.53c-.18.06-.38.38-.62.97-.23.59-.35,1.2-.35,1.85s.1,1.2.31,1.67c.2.47.69.7,1.45.7.7,0,1.64-.29,2.81-.88-.12-.41-.25-1.14-.4-2.2-.15-1.05-.48-1.9-1.01-2.55-.06,0-.09-.03-.09-.09h.09ZM146.71,69.29c.47-.82,1.02-1.39,1.67-1.71.64-.32,1.29-.48,1.93-.48,1,0,1.86.32,2.59.97.73.65,1.1,1.58,1.1,2.81,0,.7-.12,1.32-.35,1.85-4.51,7.33-9.01,14.69-13.49,22.1-4.48,7.41-8.42,15.07-11.82,22.98-1.11,1.11-2.29,1.67-3.52,1.67-.82,0-1.63-.31-2.42-.92s-1.19-1.66-1.19-3.12c0-.41.03-.73.09-.97,3.52-8.09,7.48-15.82,11.91-23.2,4.42-7.38,8.92-14.71,13.49-21.97ZM153.12,97.59l.35-.18c.58-.53,1.26-.79,2.02-.79,2.69.76,4.72,2.21,6.06,4.35,1.35,2.14,2.02,4.44,2.02,6.9,0,1.05-.18,2.15-.53,3.3s-.91,2.17-1.67,3.08c-.76.91-1.74,1.66-2.94,2.24-1.2.59-2.68.88-4.44.88-1.41,0-2.67-.28-3.78-.83-1.11-.56-2.04-1.32-2.77-2.29-.73-.97-1.29-2.08-1.67-3.34-.38-1.26-.57-2.59-.57-4,0-.94.15-1.92.44-2.94.29-1.02.72-1.98,1.27-2.86.56-.88,1.26-1.63,2.11-2.24.85-.62,1.83-.98,2.94-1.1.18,0,.35-.01.53-.04.18-.03.38-.07.62-.13ZM155.32,104.18l-2.2.53c-.18.06-.38.38-.62.97-.23.59-.35,1.2-.35,1.85s.1,1.2.31,1.67c.2.47.69.7,1.45.7.7,0,1.64-.29,2.81-.88-.12-.41-.25-1.14-.4-2.2-.15-1.05-.48-1.9-1.01-2.55-.06,0-.09-.03-.09-.09h.09Z"/>
      </g>
    </g>
  </g>
</svg>