<?xml version="1.0" encoding="UTF-8"?>
<svg id="Layer_2" data-name="Layer 2" xmlns="http://www.w3.org/2000/svg" viewBox="0 0 95 94.99">
  <defs>
    <style>
      .cls-1 {
        fill: #4d2f2e;
        stroke-width: 0px;
      }
    </style>
  </defs>
  <g id="Layer_1-2" data-name="Layer 1">
    <path id="PhoneAFriendDark" class="cls-1" d="M47.5,0C21.27,0,0,21.26,0,47.49s21.27,47.5,47.5,47.5,47.5-21.26,47.5-47.5S73.74,0,47.5,0ZM70.04,70.78c-.93.46-7.02-.14-8.02-.24-.1,0-.18-.02-.28-.04-1.01-.2-7.34-1.48-9.11-2.33-1.93-.93-9.59-4.46-13.12-7.99s-9.16-9.25-11.94-16.06c-2.78-6.81-3.36-12.45-3.45-14.46-.03-.78.03-1.74.1-2.63.14-1.52,1.39-2.69,2.91-2.73l9.36-.22s.5-.22,1.18.5c.12.14.24.27.33.4.4.52.61,1.16.61,1.82,0,1.37.03,4.14.4,5.3.4,1.25.98,2.99,1.2,3.65.09.27.14.55.15.84,0,.22-.03.45-.12.61-.14.25-2.31,2.42-3.9,3.98-.98.97-1.17,2.48-.46,3.65,1.4,2.33,3.7,6.02,5.15,7.36,2.18,2.02,6.31,5.89,7.48,6.39.42.18.99.47,1.57.77,1.25.66,2.8.35,3.7-.75,1.31-1.6,3.05-3.65,3.4-3.8.31-.13.77-.15,1.14-.14.36.01.71.1,1.05.24.79.33,2.52,1.01,3.53,1.08,1.08.07,4.19.19,5.4.24.45.01.71.31,1.11.52.2.12.3.5.45.67.42.5,1.03,11.19,1.03,11.19,0,0,.17,1.68-.84,2.18Z"/>
  </g>
</svg>