<?xml version="1.0" encoding="UTF-8"?>
<svg id="Layer_2" data-name="Layer 2" xmlns="http://www.w3.org/2000/svg" viewBox="0 0 149.23 300.66">
  <defs>
    <style>
      .cls-1 {
        fill: none;
        stroke: #4d2f2e;
        stroke-linecap: round;
        stroke-miterlimit: 10;
        stroke-width: 5px;
      }

      .cls-2 {
        fill: #4d2f2e;
      }

      .cls-2, .cls-3 {
        stroke-width: 0px;
      }

      .cls-3 {
        fill: #dfdac4;
      }
    </style>
  </defs>
  <g id="Layer_1-2" data-name="Layer 1">
    <g id="Rules_Locked">
      <g>
        <line class="cls-1" x1="31.35" y1="240.47" x2="2.5" y2="298.16"/>
        <line class="cls-1" x1="117.88" y1="240.47" x2="146.73" y2="298.16"/>
        <line class="cls-1" x1="74.61" y1="254.9" x2="74.61" y2="283.74"/>
        <line class="cls-1" x1="31.35" y1="60.19" x2="2.5" y2="2.5"/>
        <line class="cls-1" x1="117.88" y1="60.19" x2="146.73" y2="2.5"/>
        <line class="cls-1" x1="74.61" y1="45.77" x2="74.61" y2="16.92"/>
      </g>
      <g id="Locked">
        <path class="cls-2" d="M110.21,119.34c-1.04-.18-2.11-.27-3.2-.27h-9.56c.09-19.05-2.34-38.96-18.86-38.96-19.37,0-23.47,15.35-25.22,31.25-.28,2.52-.52,5.11-.71,7.71h-8.94c-1.61,0-3.18.2-4.67.58.13-2.65.32-5.32.61-7.99,2.39-22.19,10.24-45.85,40.44-45.85,27.97,0,30.41,28.34,30.11,53.53Z"/>
        <path class="cls-2" d="M125.27,145.02v57.24c0,10.49-8.51,19-19.01,19h-63.29c-10.5,0-19.01-8.51-19.01-19v-57.24c0-8.89,6.1-16.35,14.34-18.43,1.49-.38,3.06-.58,4.67-.58h63.29c1.09,0,2.16.09,3.2.27,8.98,1.52,15.81,9.33,15.81,18.74Z"/>
        <path class="cls-3" d="M59.61,196.93l9.11-18.91c-3.64-2.23-6.06-6.25-6.06-10.83,0-7.02,5.69-12.71,12.71-12.71s12.7,5.69,12.7,12.71c0,4.72-2.57,8.84-6.38,11.03l9.44,18.71h-31.52Z"/>
      </g>
    </g>
  </g>
</svg>