<?xml version="1.0" encoding="UTF-8"?>
<svg id="Layer_2" data-name="Layer 2" xmlns="http://www.w3.org/2000/svg" viewBox="0 0 205.01 374">
  <defs>
    <style>
      .cls-1 {
        fill: #4d2f2e;
      }

      .cls-1, .cls-2 {
        stroke: #4d2f2e;
        stroke-miterlimit: 10;
        stroke-width: 5px;
      }

      .cls-2 {
        fill: none;
        stroke-linecap: round;
      }

      .cls-3 {
        fill: #dfdac4;
        stroke-width: 0px;
      }
    </style>
  </defs>
  <g id="Layer_1-2" data-name="Layer 1">
    <g id="Rules_Love100pct">
      <g id="Love_100pct">
        <g id="Heart">
          <g id="Love_50pct">
            <path class="cls-1" d="M202.1,176.47c-.43,4.74-1.17,9.35-2.19,13.68-.58,2.48-1.35,4.96-2.27,7.44-2.1,5.68-5.04,11.36-8.6,16.96-3.42,5.41-7.43,10.74-11.79,15.92-2.57,3.05-5.27,6.06-8.05,9-2.91,3.08-5.92,6.08-8.96,9-2.15,2.06-4.32,4.07-6.49,6.03-3.72,3.36-7.45,6.57-11.11,9.61-3.8,3.16-7.52,6.12-11.07,8.86-5.8,4.48-11.14,8.35-15.62,11.5-8.15,5.71-13.45,9-13.45,9,0,0-5.3-3.29-13.45-9-4.48-3.15-9.82-7.02-15.62-11.5-3.55-2.74-7.27-5.7-11.07-8.86-3.66-3.04-7.39-6.25-11.11-9.61-2.17-1.96-4.34-3.97-6.49-6.03-3.04-2.92-6.05-5.92-8.96-9-2.78-2.94-5.48-5.95-8.05-9-4.36-5.18-8.37-10.51-11.79-15.92-3.56-5.6-6.5-11.28-8.6-16.96-.92-2.48-1.69-4.96-2.27-7.44-1.02-4.33-1.76-8.94-2.19-13.68-.61-6.88-.55-14.03.34-20.97.8-6.29,2.27-12.41,4.52-18,2.83-7.07,6.9-13.31,12.43-18,6.56-5.59,15.19-8.99,26.22-9,13.65-.01,24.39,3.84,32.67,9,8.87,5.54,14.9,12.58,18.62,18,3.33,4.84,4.8,8.38,4.8,8.38,0,0,1.47-3.54,4.8-8.38,3.72-5.42,9.75-12.46,18.62-18,8.28-5.16,19.02-9.01,32.67-9,11.03.01,19.66,3.41,26.22,9,5.53,4.69,9.6,10.93,12.43,18,2.25,5.59,3.72,11.71,4.52,18,.89,6.94.95,14.09.34,20.97Z"/>
          </g>
        </g>
        <g id="Number">
          <path class="cls-3" d="M34.3,187.3c-.16.05-.39.08-.7.08-1.04,0-1.86-.32-2.46-.98-.6-.65-.9-1.34-.9-2.07s.32-1.42.98-2.07,1.48-1.24,2.5-1.76c1.02-.52,2.12-.92,3.32-1.21,1.2-.29,2.34-.43,3.44-.43,1.56,0,2.75.3,3.55.9.81.6,1.41,1.36,1.8,2.27.39.91.61,1.86.66,2.85.05.99.08,1.88.08,2.66v2.58c0,4.95-.18,9.86-.55,14.73-.37,4.87-.55,9.99-.55,15.35,0,.78-.31,1.45-.94,1.99s-1.3.82-2.03.82c-.78,0-1.52-.23-2.23-.7s-1.11-1.28-1.21-2.42c0-2.08.04-4.07.12-5.98.08-1.9.17-3.85.27-5.86.1-2,.25-4.13.43-6.37.18-2.24.38-4.74.59-7.5.05-.52.08-1.03.08-1.52v-1.45c0-1.04-.04-2.03-.12-2.97s-.25-1.93-.51-2.97c-.57.16-1.47.46-2.7.9-1.22.44-2.2.82-2.93,1.13Z"/>
          <path class="cls-3" d="M72.03,184.64c.1-.05.36-.08.78-.08,1.82.47,3.52,1.07,5.08,1.8,1.56.73,2.93,1.69,4.1,2.89,1.17,1.2,2.08,2.7,2.73,4.49.65,1.8.98,4.02.98,6.68,0,2.19-.31,4.23-.94,6.13-.62,1.9-1.55,3.55-2.77,4.96-1.22,1.41-2.75,2.51-4.57,3.32-1.82.81-3.91,1.21-6.25,1.21-2.55,0-4.84-.43-6.88-1.29s-3.75-2-5.16-3.44c-1.41-1.43-2.49-3.1-3.24-5-.76-1.9-1.13-3.89-1.13-5.98,0-1.3.16-2.66.47-4.06s.83-2.76,1.56-4.06c.73-1.3,1.68-2.5,2.85-3.59s2.62-2,4.34-2.73c.99-.31,1.98-.6,2.97-.86.99-.26,1.98-.55,2.97-.86.99,0,1.69.16,2.11.47ZM71.17,190.19l-2.89.78c-1.46.31-2.66.82-3.59,1.52s-1.68,1.48-2.23,2.34-.94,1.77-1.17,2.73c-.23.96-.35,1.89-.35,2.77,0,.99.16,1.99.47,3.01s.79,1.97,1.45,2.85c.65.89,1.46,1.67,2.42,2.34.96.68,2.1,1.17,3.4,1.48h2.34c.16,0,.39.01.7.04.31.03.71-.01,1.21-.12.49-.1,1.11-.35,1.84-.74.73-.39,1.59-.98,2.58-1.76,1.77-2.45,2.66-4.89,2.66-7.34,0-1.67-.43-3.25-1.29-4.77-.86-1.51-2.18-2.86-3.95-4.06l-3.2-.78-.39-.31Z"/>
          <path class="cls-3" d="M108.6,184.64c.1-.05.36-.08.78-.08,1.82.47,3.52,1.07,5.08,1.8,1.56.73,2.93,1.69,4.1,2.89,1.17,1.2,2.08,2.7,2.73,4.49.65,1.8.98,4.02.98,6.68,0,2.19-.31,4.23-.94,6.13-.62,1.9-1.55,3.55-2.77,4.96-1.22,1.41-2.75,2.51-4.57,3.32-1.82.81-3.91,1.21-6.25,1.21-2.55,0-4.84-.43-6.88-1.29s-3.75-2-5.16-3.44c-1.41-1.43-2.49-3.1-3.24-5-.76-1.9-1.13-3.89-1.13-5.98,0-1.3.16-2.66.47-4.06s.83-2.76,1.56-4.06c.73-1.3,1.68-2.5,2.85-3.59s2.62-2,4.34-2.73c.99-.31,1.98-.6,2.97-.86.99-.26,1.98-.55,2.97-.86.99,0,1.69.16,2.11.47ZM107.74,190.19l-2.89.78c-1.46.31-2.66.82-3.59,1.52s-1.68,1.48-2.23,2.34-.94,1.77-1.17,2.73c-.23.96-.35,1.89-.35,2.77,0,.99.16,1.99.47,3.01s.79,1.97,1.45,2.85c.65.89,1.46,1.67,2.42,2.34.96.68,2.1,1.17,3.4,1.48h2.34c.16,0,.39.01.7.04.31.03.71-.01,1.21-.12.49-.1,1.11-.35,1.84-.74.73-.39,1.59-.98,2.58-1.76,1.77-2.45,2.66-4.89,2.66-7.34,0-1.67-.43-3.25-1.29-4.77-.86-1.51-2.18-2.86-3.95-4.06l-3.2-.78-.39-.31Z"/>
          <path class="cls-3" d="M135.32,181.75l.31-.16c.52-.47,1.12-.7,1.8-.7,2.39.68,4.19,1.97,5.39,3.87,1.2,1.9,1.8,3.95,1.8,6.13,0,.94-.16,1.91-.47,2.93s-.81,1.93-1.48,2.73c-.68.81-1.55,1.47-2.62,1.99-1.07.52-2.38.78-3.95.78-1.25,0-2.37-.25-3.36-.74-.99-.49-1.81-1.17-2.46-2.03-.65-.86-1.15-1.85-1.48-2.97-.34-1.12-.51-2.3-.51-3.55,0-.83.13-1.71.39-2.62.26-.91.64-1.76,1.13-2.54.49-.78,1.12-1.45,1.88-1.99.75-.55,1.63-.87,2.62-.98.16,0,.31-.01.47-.04.16-.03.34-.06.55-.12ZM137.27,187.61l-1.95.47c-.16.05-.34.34-.55.86-.21.52-.31,1.07-.31,1.64s.09,1.07.27,1.48c.18.42.61.62,1.29.62.62,0,1.46-.26,2.5-.78-.11-.36-.22-1.02-.35-1.95-.13-.94-.43-1.69-.9-2.27-.05,0-.08-.03-.08-.08h.08ZM160.08,180.03c.42-.73.91-1.24,1.48-1.52.57-.29,1.14-.43,1.72-.43.88,0,1.65.29,2.3.86.65.57.98,1.41.98,2.5,0,.62-.11,1.17-.31,1.64-4.01,6.51-8.01,13.06-11.99,19.65-3.98,6.59-7.49,13.4-10.51,20.43-.99.99-2.03,1.48-3.12,1.48-.73,0-1.45-.27-2.15-.82s-1.05-1.47-1.05-2.77c0-.36.03-.65.08-.86,3.12-7.19,6.65-14.06,10.59-20.62,3.93-6.56,7.93-13.07,11.99-19.53ZM165.78,205.19l.31-.16c.52-.47,1.12-.7,1.8-.7,2.39.68,4.19,1.97,5.39,3.87,1.2,1.9,1.8,3.95,1.8,6.13,0,.94-.16,1.91-.47,2.93s-.81,1.93-1.48,2.73c-.68.81-1.55,1.47-2.62,1.99-1.07.52-2.38.78-3.95.78-1.25,0-2.37-.25-3.36-.74-.99-.49-1.81-1.17-2.46-2.03-.65-.86-1.15-1.85-1.48-2.97-.34-1.12-.51-2.3-.51-3.55,0-.83.13-1.71.39-2.62.26-.91.64-1.76,1.13-2.54.49-.78,1.12-1.45,1.88-1.99.75-.55,1.63-.87,2.62-.98.16,0,.31-.01.47-.04.16-.03.34-.06.55-.12ZM167.74,211.05l-1.95.47c-.16.05-.34.34-.55.86-.21.52-.31,1.07-.31,1.64s.09,1.07.27,1.48c.18.42.61.62,1.29.62.62,0,1.46-.26,2.5-.78-.11-.36-.22-1.02-.35-1.95-.13-.94-.43-1.69-.9-2.27-.05,0-.08-.03-.08-.08h.08Z"/>
        </g>
      </g>
      <g id="Effect">
        <line class="cls-2" x1="49.51" y1="299.5" x2="13.51" y2="371.5"/>
        <line class="cls-2" x1="157.51" y1="299.5" x2="193.51" y2="371.5"/>
        <line class="cls-2" x1="103.51" y1="317.5" x2="103.51" y2="353.5"/>
        <line class="cls-2" x1="49.51" y1="74.5" x2="13.51" y2="2.5"/>
        <line class="cls-2" x1="157.51" y1="74.5" x2="193.51" y2="2.5"/>
        <line class="cls-2" x1="103.51" y1="56.5" x2="103.51" y2="20.5"/>
      </g>
    </g>
  </g>
</svg>