<?xml version="1.0" encoding="UTF-8"?>
<svg id="Layer_2" data-name="Layer 2" xmlns="http://www.w3.org/2000/svg" viewBox="0 0 610.34 661.1">
  <defs>
    <style>
      .cls-1, .cls-2 {
        stroke-linejoin: round;
      }

      .cls-1, .cls-2, .cls-3, .cls-4 {
        fill: none;
        stroke-linecap: round;
      }

      .cls-1, .cls-2, .cls-5, .cls-6, .cls-7, .cls-8 {
        stroke-width: 3px;
      }

      .cls-1, .cls-6, .cls-8 {
        stroke: #707070;
      }

      .cls-2, .cls-3, .cls-5, .cls-7, .cls-4 {
        stroke: #4d2f2e;
      }

      .cls-9, .cls-10 {
        fill-rule: evenodd;
      }

      .cls-9, .cls-10, .cls-11, .cls-12, .cls-13 {
        stroke-width: 0px;
      }

      .cls-9, .cls-6, .cls-12 {
        fill: #707070;
      }

      .cls-10, .cls-7, .cls-11 {
        fill: #4d2f2e;
      }

      .cls-3 {
        stroke-width: 10px;
      }

      .cls-3, .cls-5, .cls-6, .cls-7, .cls-8, .cls-4 {
        stroke-miterlimit: 10;
      }

      .cls-5, .cls-13 {
        fill: #dfdac4;
      }

      .cls-8 {
        fill: #e6e6e6;
      }

      .cls-4 {
        stroke-width: 5px;
      }
    </style>
  </defs>
  <g id="Layer_1-2" data-name="Layer 1">
    <g id="Rules_Win">
      <g>
        <g id="Love_10pct">
          <path class="cls-6" d="M479.97,381.94c-1.68,1.4-3.33,2.71-4.9,3.92-2.57,1.98-4.93,3.7-6.91,5.09-3.61,2.53-5.95,3.98-5.95,3.98,0,0-2.35-1.46-5.95-3.98-1.98-1.39-4.35-3.11-6.91-5.09-1.57-1.21-3.22-2.52-4.9-3.92h35.54Z"/>
          <path class="cls-8" d="M505.33,349.2c-2.77,11.78-14.73,23.93-25.35,32.74h-35.54c-10.62-8.81-22.58-20.96-25.35-32.74-3.34-14.18,0-35.24,18.29-35.26,18.3-.02,24.83,15.66,24.83,15.66,0,0,6.53-15.68,24.83-15.66,18.29.02,21.63,21.08,18.29,35.26Z"/>
          <g>
            <path class="cls-12" d="M437.34,347.12c-.08.03-.19.04-.35.04-.52,0-.93-.16-1.23-.49-.3-.32-.45-.67-.45-1.03s.16-.71.49-1.03c.32-.32.74-.62,1.25-.88.51-.26,1.06-.46,1.65-.6.6-.14,1.17-.21,1.71-.21.78,0,1.37.15,1.77.45.4.3.7.67.89,1.13.19.45.3.93.33,1.42.03.49.04.93.04,1.32v1.28c0,2.46-.09,4.91-.27,7.33-.18,2.43-.27,4.97-.27,7.65,0,.39-.16.72-.47.99s-.65.41-1.01.41c-.39,0-.76-.12-1.11-.35s-.55-.64-.6-1.21c0-1.04.02-2.03.06-2.98.04-.95.08-1.92.14-2.92.05-1,.12-2.06.21-3.17.09-1.11.19-2.36.29-3.74.03-.26.04-.51.04-.76v-.72c0-.52-.02-1.01-.06-1.48s-.12-.96-.25-1.48c-.29.08-.73.23-1.34.45-.61.22-1.1.41-1.46.56Z"/>
            <path class="cls-12" d="M456.13,345.8c.05-.03.18-.04.39-.04.91.23,1.75.53,2.53.89.78.36,1.46.84,2.04,1.44.58.6,1.04,1.34,1.36,2.24.32.89.49,2,.49,3.33,0,1.09-.16,2.11-.47,3.05-.31.95-.77,1.77-1.38,2.47-.61.7-1.37,1.25-2.28,1.65-.91.4-1.95.6-3.11.6-1.27,0-2.41-.21-3.42-.64s-1.87-1-2.57-1.71c-.7-.71-1.24-1.54-1.61-2.49-.38-.95-.56-1.94-.56-2.98,0-.65.08-1.32.23-2.02s.41-1.37.78-2.02c.36-.65.84-1.25,1.42-1.79s1.3-1,2.16-1.36c.49-.16.99-.3,1.48-.43.49-.13.99-.27,1.48-.43.49,0,.84.08,1.05.23ZM455.71,348.56l-1.44.39c-.73.16-1.32.41-1.79.76s-.84.74-1.11,1.17-.47.88-.58,1.36c-.12.48-.18.94-.18,1.38,0,.49.08.99.23,1.5s.4.98.72,1.42c.32.44.73.83,1.21,1.17.48.34,1.04.58,1.69.74h1.17c.08,0,.19,0,.35.02.16.01.36,0,.6-.06.25-.05.55-.18.91-.37.36-.19.79-.49,1.28-.88.88-1.22,1.32-2.44,1.32-3.66,0-.83-.21-1.62-.64-2.37-.43-.75-1.08-1.43-1.96-2.02l-1.6-.39-.19-.16Z"/>
            <path class="cls-12" d="M469.44,344.36l.16-.08c.26-.23.56-.35.89-.35,1.19.34,2.09.98,2.68,1.93.6.95.89,1.96.89,3.05,0,.47-.08.95-.23,1.46s-.4.96-.74,1.36c-.34.4-.77.73-1.3.99-.53.26-1.19.39-1.96.39-.62,0-1.18-.12-1.67-.37-.49-.25-.9-.58-1.23-1.01-.32-.43-.57-.92-.74-1.48-.17-.56-.25-1.15-.25-1.77,0-.41.06-.85.19-1.3.13-.45.32-.88.56-1.26.25-.39.56-.72.93-.99.38-.27.81-.43,1.3-.49.08,0,.16,0,.23-.02.08-.01.17-.03.27-.06ZM470.41,347.28l-.97.23c-.08.03-.17.17-.27.43-.1.26-.16.53-.16.82s.04.53.14.74c.09.21.3.31.64.31.31,0,.73-.13,1.25-.39-.05-.18-.11-.51-.18-.97-.07-.47-.21-.84-.45-1.13-.03,0-.04-.01-.04-.04h.04ZM481.78,343.5c.21-.36.45-.62.74-.76.29-.14.57-.21.86-.21.44,0,.82.14,1.15.43.32.29.49.7.49,1.25,0,.31-.05.58-.16.82-2,3.24-3.99,6.5-5.97,9.79-1.98,3.28-3.73,6.67-5.23,10.17-.49.49-1.01.74-1.56.74-.36,0-.72-.14-1.07-.41s-.53-.73-.53-1.38c0-.18.01-.32.04-.43,1.56-3.58,3.31-7,5.27-10.27,1.96-3.27,3.95-6.51,5.97-9.73ZM484.62,356.03l.16-.08c.26-.23.56-.35.89-.35,1.19.34,2.09.98,2.68,1.93.6.95.89,1.96.89,3.05,0,.47-.08.95-.23,1.46s-.4.96-.74,1.36c-.34.4-.77.73-1.3.99-.53.26-1.19.39-1.96.39-.62,0-1.18-.12-1.67-.37-.49-.25-.9-.58-1.23-1.01-.32-.43-.57-.92-.74-1.48-.17-.56-.25-1.15-.25-1.77,0-.41.06-.85.19-1.3.13-.45.32-.88.56-1.26.25-.39.56-.72.93-.99.38-.27.81-.43,1.3-.49.08,0,.16,0,.23-.02.08-.01.17-.03.27-.06ZM485.59,358.95l-.97.23c-.08.03-.17.17-.27.43-.1.26-.16.53-.16.82s.04.53.14.74c.09.21.3.31.64.31.31,0,.73-.13,1.25-.39-.05-.18-.11-.51-.18-.97-.07-.47-.21-.84-.45-1.13-.03,0-.04-.01-.04-.04h.04Z"/>
          </g>
        </g>
        <g>
          <path class="cls-1" d="M416.55,417.55s1.69-1.72,1.71-1.71c.1.1-1.27,11.02-1.2,11.1.09.09,11.39-11.62,11.5-11.5.11.11-11.11,20.83-11.02,20.92.16.16,19.57-19.97,19.77-19.77.13.13-20.67,30.16-20.46,30.36.3.3,31.34-31.91,31.63-31.63.32.32-30.95,40.38-30.72,40.61.36.36,39.55-39.97,39.76-39.76s-31.6,41.1-31.4,41.3c.36.36,41.62-42.42,42.02-42.02.53.53-33.51,42.63-33.12,43.02.26.26,42-42.84,42.42-42.42s-33.01,41.86-32.49,42.38c.61.61,42.14-43.01,42.58-42.58.33.33-32.17,41.24-31.75,41.65.25.25,40.69-41.31,41-41,.39.39-32.16,41.25-31.76,41.65.33.33,42.38-42.94,42.66-42.66.22.22-32.91,41.88-32.44,42.34.41.41,32.17-32.99,32.58-32.58s-23.47,32.57-23.07,32.97c.24.24,22.72-22.98,22.85-22.85.14.14-12.35,21.92-12.18,22.08.08.08,11.38-11.67,11.52-11.52.08.08-2.01,11.74-1.93,11.83.02.02,2.71-2.77,2.74-2.74"/>
          <g>
            <path class="cls-1" d="M418.84,416.2s.08-.1.09-.09c.06.06,9.01.79,9.06.84,0,0,1.8-1.82,1.81-1.81.04.04,8.1,1.64,8.18,1.72,0,0,1.1-1.13,1.11-1.11.05.05,8.8.92,8.89,1.01.01.01.61-.62.61-.61.07.07,10.11-.29,10.15-.25,0,0,.74-.76.75-.75.04.04,9.11.72,9.15.75,0,0,1.1-1.12,1.11-1.11.06.06,7.72,2.08,7.77,2.13,0,0,.94-.95.94-.94.06.06,9,.77,9.06.84,0,0,1.36-1.38,1.37-1.37.07.07,9.21.55,9.28.62.01.01.89-.91.9-.9.05.05,7.38,2.43,7.42,2.48,0,0,.77-.78.78-.78.07.07-1.07,10.74-.96,10.86,0,0,1.91-1.91,1.91-1.91.08.08-.76,10.57-.71,10.61,0,0,.37-.39.38-.38.1.1-.45,10.24-.4,10.3,0,0,.49-.5.49-.49"/>
            <path class="cls-1" d="M416.08,417.08s1.69-1.72,1.71-1.71c.1.1-1.27,11.02-1.2,11.1,0,0,1.42-1.44,1.43-1.43.05.05-1.46,11.27-1.42,11.32,0,0,.9-.92.91-.91.04.04-1.19,10.97-1.13,11.03,0,0,1.77-1.79,1.78-1.78.07.07-.92,10.72-.87,10.77,0,0,.02-.03.03-.03.03.03,7.34,2.5,7.37,2.53,0,0,.97-.99.98-.98.08.08,7.87,1.91,7.93,1.97,0,0,1.36-1.38,1.37-1.37.07.07,8.48,1.25,8.57,1.33.01.01,1.51-1.53,1.52-1.52.06.06,8.82.93,8.89,1,0,0,.92-.93.93-.93.07.07,8.66,1.1,8.73,1.17,0,0,1.6-1.61,1.6-1.6.04.04,8.54,1.21,8.62,1.28.01.01,1.34-1.36,1.35-1.35.08.08,8.09,1.65,8.17,1.73,0,0,1.5-1.52,1.51-1.51.05.05,9.1.68,9.16.74,0,0,.07-.09.08-.08.06.06,9.46.31,9.52.38,0,0,1.18-1.2,1.19-1.19"/>
          </g>
        </g>
        <g id="UserIcon">
          <circle class="cls-12" cx="462.2" cy="499.04" r="14.1"/>
          <path class="cls-9" d="M495.18,538.59v7.46s-65.95,0-65.95,0v-7.46c5.23-9.38,18.02-16,32.98-16s27.75,6.62,32.98,16Z"/>
        </g>
      </g>
      <g>
        <g id="UserIcon-2" data-name="UserIcon">
          <circle class="cls-12" cx="292.47" cy="499.04" r="14.1"/>
          <path class="cls-9" d="M325.45,538.59v7.46s-65.95,0-65.95,0v-7.46c5.23-9.38,18.02-16,32.98-16s27.75,6.62,32.98,16Z"/>
        </g>
        <g>
          <path class="cls-1" d="M246.82,333.55s1.69-1.72,1.71-1.71c.1.1-1.27,11.02-1.2,11.1.09.09,11.39-11.62,11.5-11.5.11.11-11.11,20.83-11.02,20.92.16.16,19.57-19.97,19.77-19.77.13.13-20.67,30.16-20.46,30.36.3.3,31.34-31.91,31.63-31.63.32.32-30.95,40.38-30.72,40.61.36.36,39.55-39.97,39.76-39.76.25.25-40.24,49.64-39.99,49.89.44.44,50.13-51.1,50.61-50.61.79.79-52.2,60.93-51.61,61.51.37.37,60.31-61.51,60.91-60.91.75.75-61.8,69.86-60.88,70.78,1.03,1.03,70.24-71.71,70.97-70.97.66.66-70.89,79.12-70.05,79.95.47.47,78.71-79.89,79.3-79.3.9.9-80.88,88.93-79.96,89.86.71.71,90.26-91.47,90.86-90.86.56.56-91.72,99.28-90.55,100.45s89.53-91.83,90.68-90.68c1.34,1.34-92.42,99.62-91.07,100.97.97.97,90.34-91.36,90.85-90.85.76.76-90.95,99.12-90.08,99.98.57.57,88.34-90.5,89.42-89.42.87.87-86.82,94.96-85.94,95.84.63.63,85.75-87.75,86.75-86.75.48.48-78.2,85.81-77.06,86.96.95.95,75.31-77.6,76.46-76.46.45.45-67.19,75.33-66.31,76.21.74.74,66.6-67.66,67.13-67.13.81.81-58.15,66.25-57.25,67.15.8.8,55.09-56.77,55.93-55.93.59.59-46.6,55.22-45.96,55.86.45.45,46.5-47.61,47.05-47.05.29.29-37.26,46.4-36.88,46.78.41.41,36.67-37.5,37.08-37.08.25.25-28.23,37.37-27.85,37.75.26.26,27.53-28.33,27.93-27.93.31.31-17.43,27.07-17.3,27.2.12.12,15.93-16.3,16.12-16.12.11.11-7.53,17.1-7.36,17.26.06.06,8.13-8.27,8.2-8.2"/>
          <g>
            <path class="cls-1" d="M249.11,332.2s.08-.1.09-.09c.06.06,9.01.79,9.06.84,0,0,1.8-1.82,1.81-1.81.04.04,8.1,1.64,8.18,1.72,0,0,1.1-1.13,1.11-1.11.05.05,8.8.92,8.89,1.01.01.01.61-.62.61-.61.07.07,10.11-.29,10.15-.25,0,0,.74-.76.75-.75.04.04,9.11.72,9.15.75,0,0,1.1-1.12,1.11-1.11.06.06,7.72,2.08,7.77,2.13,0,0,.94-.95.94-.94.06.06,9,.77,9.06.84,0,0,1.36-1.38,1.37-1.37.07.07,9.21.55,9.28.62.01.01.89-.91.9-.9.05.05,7.38,2.43,7.42,2.48,0,0,.77-.78.78-.78.07.07-1.08,10.75-.97,10.86,0,0,1.91-1.92,1.91-1.91.08.08-.77,10.58-.73,10.62,0,0,.37-.39.38-.38.1.1-.46,10.25-.41,10.31,0,0,.49-.5.5-.5.09.09-.95,10.71-.88,10.78,0,0,1.27-1.29,1.28-1.28.12.12-1.95,11.61-1.83,11.73,0,0,.64-.65.65-.65.05.05-.38,10.12-.3,10.2,0,0,.93-.95.94-.94.09.09-.89,10.63-.81,10.71,0,0,1.07-1.09,1.08-1.08.07.07-1.1,10.8-1,10.9,0,0,1.17-1.19,1.18-1.18.1.1-1.95,11.72-1.88,11.78,0,0,1.77-1.79,1.78-1.78.09.09-.74,10.44-.64,10.54,0,0,.08-.1.09-.09.12.12-1.24,11-1.17,11.07,0,0,.96-.98.97-.97.05.05-.92,10.62-.82,10.72,0,0,1.76-1.78,1.77-1.77"/>
            <path class="cls-1" d="M246.35,333.08s1.69-1.72,1.71-1.71c.1.1-1.27,11.02-1.2,11.1,0,0,1.42-1.43,1.42-1.42.05.05-1.45,11.27-1.41,11.31,0,0,.88-.9.89-.89.04.04-1.17,10.95-1.11,11.01,0,0,1.74-1.76,1.75-1.75.07.07-1.58,11.37-1.53,11.43,0,0,.89-.9.9-.9.04.04-.48,10.3-.44,10.34,0,0,.93-.95.94-.94.12.12-2.03,11.76-1.94,11.84,0,0,1.33-1.35,1.34-1.34.09.09-1.42,11.1-1.31,11.21.01.01,1.5-1.51,1.51-1.51.07.07-1.08,10.81-.99,10.89,0,0,.91-.92.92-.92.08.08-1.25,10.98-1.17,11.07,0,0,1.59-1.61,1.6-1.6.05.05-1.38,11.09-1.29,11.19.01.01,1.34-1.36,1.35-1.35.12.12-1.86,11.53-1.74,11.64.01.01,1.52-1.53,1.52-1.52.06.06-.83,10.59-.76,10.66,0,0,.09-.11.1-.1.05.05,2.36,7.43,2.41,7.49,0,0,1.2-1.22,1.21-1.21.04.04,8.4,1.33,8.48,1.42.01.01.8-.83.82-.82.04.04,9.25.49,9.33.57.01.01,1.38-1.4,1.39-1.39.08.08,8.41,1.32,8.49,1.4.01.01.07-.1.08-.08.08.08,9.8-.08,9.89.01,0,0,1.09-1.12,1.1-1.1.04.04,9.01.77,9.07.83.01.01,1.02-1.04,1.03-1.03.04.04,8.13,1.63,8.2,1.7,0,0,1.76-1.79,1.78-1.78.08.08,8.29,1.54,8.33,1.57,0,0,.91-.93.92-.92.05.05,8.29,1.46,8.37,1.53,0,0,1.83-1.85,1.84-1.84"/>
          </g>
        </g>
        <g id="Love_30pct">
          <path class="cls-6" d="M325.56,286.05c-1.14,1.35-2.33,2.68-3.56,3.98-1.29,1.36-2.62,2.69-3.97,3.98-.95.91-1.91,1.8-2.87,2.67-1.65,1.49-3.3,2.91-4.92,4.25-1.68,1.4-3.33,2.71-4.9,3.92-2.57,1.98-4.93,3.7-6.91,5.09-3.61,2.53-5.95,3.98-5.95,3.98,0,0-2.35-1.46-5.95-3.98-1.98-1.39-4.35-3.11-6.91-5.09-1.57-1.21-3.22-2.52-4.9-3.92-1.62-1.35-3.27-2.77-4.92-4.25-.96-.87-1.92-1.76-2.87-2.67-1.35-1.29-2.68-2.62-3.97-3.98-1.23-1.3-2.43-2.63-3.56-3.98h66.18Z"/>
          <path class="cls-8" d="M335.59,268.2c-1.41,6.02-5.22,12.14-10.03,17.85h-66.18c-4.81-5.71-8.62-11.83-10.03-17.85-3.34-14.18,0-35.24,18.29-35.26,18.3-.02,24.83,15.66,24.83,15.66,0,0,6.53-15.68,24.83-15.66,18.29.02,21.63,21.08,18.29,35.26Z"/>
          <g>
            <path class="cls-12" d="M267.76,283.05c-.23-.39-.38-.79-.43-1.21,0-.36.14-.7.43-1.01.29-.31.69-.47,1.21-.47.41,0,.75.07,1.01.21.26.14.49.3.7.47.21.17.43.32.68.47.25.14.58.21.99.21.52,0,1.04-.06,1.58-.19.53-.13,1.01-.34,1.44-.64.43-.3.78-.67,1.05-1.13.27-.45.41-.99.41-1.61,0-.75-.27-1.23-.8-1.42-.53-.19-1.17-.33-1.93-.41-.65,0-1.26.04-1.83.12l-.51.08c-.7.29-1.35.43-1.95.43-.96-.16-1.52-.7-1.67-1.63,0-.34.13-.64.39-.91.26-.27.58-.51.97-.72.39-.21.8-.4,1.23-.56.43-.17.81-.32,1.15-.45.57-.21,1.13-.45,1.67-.74.54-.29,1.04-.64,1.5-1.07.45-.43.86-.95,1.23-1.56.36-.61.66-1.37.89-2.28l.04-.62c0-.47-.15-.87-.45-1.21-.3-.34-.66-.62-1.07-.84-.42-.22-.82-.38-1.23-.49-.4-.1-.72-.16-.95-.16-.57,0-1.14.11-1.69.33-.56.22-1.08.52-1.58.89-.49.38-.94.81-1.34,1.3-.4.49-.73,1.03-.99,1.6-.47.49-.95.74-1.44.74-.44,0-.8-.14-1.07-.43-.27-.29-.41-.69-.41-1.21,0-.36.12-.76.35-1.21.23-.44.53-.88.88-1.3s.72-.84,1.11-1.23.74-.71,1.05-.97c.7-.49,1.48-.89,2.33-1.21s1.74-.47,2.65-.47c1.11.05,2.11.26,2.98.62.87.36,1.6.84,2.2,1.42.6.58,1.05,1.25,1.36,2,.31.75.47,1.53.47,2.33,0,1.12-.32,2.29-.95,3.52-.64,1.23-1.55,2.3-2.74,3.21.41.1.82.28,1.23.53.4.25.76.56,1.07.93.31.38.56.81.76,1.3.19.49.29,1.03.29,1.6,0,1.25-.25,2.31-.76,3.19-.51.88-1.13,1.6-1.87,2.14s-1.53.95-2.37,1.21c-.84.26-1.6.39-2.28.39-2.05,0-3.71-.64-4.98-1.91Z"/>
            <path class="cls-12" d="M291.3,264.8c.05-.03.18-.04.39-.04.91.23,1.75.53,2.53.89.78.36,1.46.84,2.04,1.44.58.6,1.04,1.34,1.36,2.24.32.89.49,2,.49,3.33,0,1.09-.16,2.11-.47,3.05-.31.95-.77,1.77-1.38,2.47-.61.7-1.37,1.25-2.28,1.65-.91.4-1.95.6-3.11.6-1.27,0-2.41-.21-3.42-.64s-1.87-1-2.57-1.71c-.7-.71-1.24-1.54-1.61-2.49-.38-.95-.56-1.94-.56-2.98,0-.65.08-1.32.23-2.02s.41-1.37.78-2.02c.36-.65.84-1.25,1.42-1.79s1.3-1,2.16-1.36c.49-.16.99-.3,1.48-.43.49-.13.99-.27,1.48-.43.49,0,.84.08,1.05.23ZM290.87,267.56l-1.44.39c-.73.16-1.32.41-1.79.76s-.84.74-1.11,1.17-.47.88-.58,1.36c-.12.48-.18.94-.18,1.38,0,.49.08.99.23,1.5s.4.98.72,1.42c.32.44.73.83,1.21,1.17.48.34,1.04.58,1.69.74h1.17c.08,0,.19,0,.35.02.16.01.36,0,.6-.06.25-.05.55-.18.91-.37.36-.19.79-.49,1.28-.88.88-1.22,1.32-2.44,1.32-3.66,0-.83-.21-1.62-.64-2.37-.43-.75-1.08-1.43-1.96-2.02l-1.6-.39-.19-.16Z"/>
            <path class="cls-12" d="M304.61,263.36l.16-.08c.26-.23.56-.35.89-.35,1.19.34,2.09.98,2.68,1.93.6.95.89,1.96.89,3.05,0,.47-.08.95-.23,1.46s-.4.96-.74,1.36c-.34.4-.77.73-1.3.99-.53.26-1.19.39-1.96.39-.62,0-1.18-.12-1.67-.37-.49-.25-.9-.58-1.23-1.01-.32-.43-.57-.92-.74-1.48-.17-.56-.25-1.15-.25-1.77,0-.41.06-.85.19-1.3.13-.45.32-.88.56-1.26.25-.39.56-.72.93-.99.38-.27.81-.43,1.3-.49.08,0,.16,0,.23-.02.08-.01.17-.03.27-.06ZM305.58,266.28l-.97.23c-.08.03-.17.17-.27.43-.1.26-.16.53-.16.82s.04.53.14.74c.09.21.3.31.64.31.31,0,.73-.13,1.25-.39-.05-.18-.11-.51-.18-.97-.06-.47-.21-.84-.45-1.13-.03,0-.04-.01-.04-.04h.04ZM316.94,262.5c.21-.36.45-.62.74-.76.29-.14.57-.21.86-.21.44,0,.82.14,1.15.43.32.29.49.7.49,1.25,0,.31-.05.58-.16.82-2,3.24-3.99,6.5-5.97,9.79-1.98,3.28-3.73,6.67-5.23,10.17-.49.49-1.01.74-1.56.74-.36,0-.72-.14-1.07-.41s-.53-.73-.53-1.38c0-.18.01-.32.04-.43,1.56-3.58,3.31-7,5.27-10.27,1.96-3.27,3.95-6.51,5.97-9.73ZM319.78,275.03l.16-.08c.26-.23.56-.35.89-.35,1.19.34,2.09.98,2.68,1.93.6.95.89,1.96.89,3.05,0,.47-.08.95-.23,1.46s-.4.96-.74,1.36c-.34.4-.77.73-1.3.99-.53.26-1.19.39-1.96.39-.62,0-1.18-.12-1.67-.37-.49-.25-.9-.58-1.23-1.01-.32-.43-.57-.92-.74-1.48-.17-.56-.25-1.15-.25-1.77,0-.41.06-.85.19-1.3.13-.45.32-.88.56-1.26.25-.39.56-.72.93-.99.38-.27.81-.43,1.3-.49.08,0,.16,0,.23-.02.08-.01.17-.03.27-.06ZM320.76,277.95l-.97.23c-.08.03-.17.17-.27.43-.1.26-.16.53-.16.82s.04.53.14.74c.09.21.3.31.64.31.31,0,.73-.13,1.25-.39-.05-.18-.11-.51-.18-.97-.06-.47-.21-.84-.45-1.13-.03,0-.04-.01-.04-.04h.04Z"/>
          </g>
        </g>
      </g>
      <line class="cls-3" x1="29.34" y1="457.94" x2="605.34" y2="457.94"/>
      <line class="cls-3" x1="29.34" y1="457.94" x2="29.34" y2="5"/>
      <g>
        <g id="UserIcon-3" data-name="UserIcon">
          <circle class="cls-11" cx="122.73" cy="499.9" r="19.25"/>
          <path class="cls-10" d="M167.73,553.87v10.19s-90,0-90,0v-10.19c7.14-12.8,24.6-21.84,45-21.84s37.86,9.04,45,21.84Z"/>
        </g>
        <g>
          <path class="cls-2" d="M77.08,207.55s1.69-1.72,1.71-1.71c.1.1-1.27,11.02-1.2,11.1.09.09,11.39-11.62,11.5-11.5.11.11-11.11,20.83-11.02,20.92.16.16,19.57-19.97,19.77-19.77.13.13-20.67,30.16-20.46,30.36.3.3,31.34-31.91,31.63-31.63.32.32-30.95,40.38-30.72,40.61.36.36,39.55-39.97,39.76-39.76.25.25-40.24,49.64-39.99,49.89.44.44,50.13-51.1,50.61-50.61.79.79-52.2,60.93-51.61,61.51.37.37,60.31-61.51,60.91-60.91.75.75-61.8,69.86-60.88,70.78,1.03,1.03,70.24-71.71,70.97-70.97.66.66-70.89,79.12-70.05,79.95.47.47,78.71-79.89,79.3-79.3.9.9-80.88,88.93-79.96,89.86.71.71,90.26-91.47,90.86-90.86.56.56-91.72,99.28-90.55,100.45s89.53-91.83,90.68-90.68c1.34,1.34-92.41,99.62-91.07,100.97.97.97,90.33-91.36,90.85-90.85.76.76-90.95,99.12-90.08,99.98.57.57,88.34-90.5,89.42-89.42.9.9-90.64,98.7-89.72,99.62.66.66,89.48-91.58,90.53-90.53.56.56-92.08,99.3-90.74,100.64,1.12,1.12,88.79-91.49,90.14-90.14.6.6-91.07,98.63-89.9,99.8,1,1,90-91.43,90.72-90.72,1.25,1.25-92.11,99.26-90.74,100.64,1.27,1.27,88.07-90.75,89.41-89.41,1.09,1.09-90.52,98.07-89.35,99.25.87.87,89.37-91.5,90.44-90.44.66.66-91.03,99.2-90.17,100.07,1.01,1.01,89.36-91.39,90.37-90.37.72.72-92.14,99.84-91.04,100.94.86.86,89.8-92.44,91.12-91.12s-90.93,99.76-90.4,100.29c.61.61,88.25-90.16,89.21-89.21.81.81-91.53,99.08-90.36,100.26.71.71,90.32-92.06,91.19-91.19,1.2,1.2-90.89,99.21-90.1,100,.55.55,88.34-90.11,89.23-89.23.49.49-89.77,98.29-89.08,98.98.88.88,88.83-90.77,89.8-89.8,1.05,1.05-91.6,100.34-91.02,100.92,1.29,1.29,89.73-91.38,90.56-90.56,1.13,1.13-92.04,99.09-90.62,100.52,1.09,1.09,90.86-91.83,91.35-91.35.76.76-83.99,92.99-83.54,93.44.97.97,81.43-83.61,82.52-82.52.42.42-74.61,82.75-73.73,83.63.4.4,73.16-75.07,74.11-74.11.63.63-64.2,73.17-63.73,73.63.9.9,62.9-63.89,63.39-63.39.43.43-53.54,62.45-53.04,62.94.41.41,53.78-54.47,54.12-54.12.58.58-45.77,54.49-45.18,55.08.47.47,43.89-44.37,44.13-44.13.23.23-33.24,42.72-33.03,42.93.43.43,33.12-34.09,33.6-33.6.28.28-24.61,33.96-24.33,34.23.2.2,23.8-24.05,23.92-23.92.26.26-13.91,23.48-13.74,23.64.12.12,14.32-14.56,14.44-14.44.14.14-5.19,14.91-5.1,15,.02.02,5.2-5.25,5.22-5.22"/>
          <g>
            <path class="cls-2" d="M79.37,206.2s.08-.1.09-.09c.06.06,9.01.79,9.06.84,0,0,1.8-1.82,1.81-1.81.04.04,8.1,1.64,8.18,1.72,0,0,1.1-1.13,1.11-1.11.05.05,8.8.92,8.89,1.01.01.01.61-.62.61-.61.07.07,10.11-.29,10.15-.25,0,0,.74-.76.75-.75.04.04,9.11.72,9.15.75,0,0,1.1-1.12,1.11-1.11.06.06,7.72,2.08,7.77,2.13,0,0,.94-.95.94-.94.06.06,9,.77,9.06.84,0,0,1.36-1.38,1.37-1.37.07.07,9.21.55,9.28.62.01.01.89-.91.9-.9.05.05,7.38,2.43,7.42,2.48,0,0,.77-.78.78-.78.07.07-1.08,10.75-.97,10.87,0,0,1.91-1.92,1.91-1.91.08.08-.78,10.58-.73,10.63,0,0,.37-.39.38-.38.1.1-.46,10.25-.41,10.31,0,0,.49-.5.5-.5.09.09-.96,10.71-.88,10.78,0,0,1.27-1.29,1.28-1.28.12.12-1.95,11.61-1.83,11.73,0,0,.64-.65.65-.65.05.05-.38,10.12-.3,10.2,0,0,.93-.95.94-.94.09.09-.9,10.63-.81,10.71,0,0,1.07-1.09,1.08-1.08.07.07-1.11,10.8-1.01,10.9,0,0,1.17-1.2,1.18-1.18.1.1-1.95,11.72-1.89,11.78,0,0,1.77-1.79,1.78-1.78.09.09-.74,10.44-.64,10.54,0,0,.08-.1.09-.09.12.12-1.24,11-1.17,11.07,0,0,.96-.98.97-.97.05.05-.92,10.62-.82,10.72,0,0,1.76-1.78,1.77-1.77.11.11-1.73,11.5-1.66,11.56,0,0,1.39-1.4,1.39-1.39.09.09-1.27,10.98-1.18,11.08.01.01,1.38-1.41,1.39-1.39.06.06-2.14,11.83-2.04,11.94.01.01,1.84-1.87,1.85-1.85.05.05-1.7,11.46-1.63,11.53,0,0,1.94-1.97,1.96-1.96.05.05-1.68,11.35-1.56,11.46.01.01,1.13-1.16,1.15-1.15.05.05-.76,10.53-.69,10.59,0,0,.59-.6.59-.59.05.05-1.07,10.85-1.01,10.91,0,0,.93-.95.94-.94.04.04-.63,10.33-.53,10.43,0,0,.94-.95.94-.94.06.06-1.57,11.35-1.51,11.41.01.01,1.57-1.58,1.57-1.57.08.08-1.36,11.07-1.27,11.17,0,0,.18-.2.19-.19.05.05-.43,10.12-.33,10.23.01.01.93-.95.94-.94.09.09-1.03,10.77-.95,10.85.01.01.49-.51.5-.5.06.06-.58,10.3-.49,10.39.01.01.71-.74.73-.73"/>
            <path class="cls-2" d="M76.61,207.08s1.69-1.72,1.71-1.71c.1.1-1.27,11.02-1.2,11.1,0,0,1.41-1.43,1.42-1.42.05.05-1.45,11.26-1.41,11.31,0,0,.88-.89.88-.88.04.04-1.17,10.95-1.11,11.01,0,0,1.74-1.75,1.74-1.74.07.07-1.57,11.37-1.52,11.42,0,0,.88-.89.89-.89.04.04-.47,10.29-.43,10.33,0,0,.92-.94.93-.93.12.12-2.02,11.74-1.93,11.83,0,0,1.32-1.34,1.33-1.33.09.09-1.41,11.09-1.3,11.2.01.01,1.48-1.5,1.49-1.49.07.07-1.06,10.79-.98,10.88,0,0,.89-.91.9-.9.08.08-1.23,10.96-1.15,11.05,0,0,1.57-1.58,1.58-1.58.05.05-1.36,11.07-1.26,11.16.01.01,1.32-1.34,1.33-1.33.12.12-1.84,11.5-1.72,11.62,0,0,1.49-1.5,1.5-1.5.06.06-.8,10.56-.73,10.63,0,0,.06-.08.07-.07.07.07-.45,10.2-.38,10.28,0,0,1.17-1.2,1.19-1.19.05.05-1.51,11.18-1.39,11.29.01.01.78-.81.79-.79.05.05-.64,10.36-.55,10.45.01.01,1.36-1.38,1.37-1.37.1.1-1.51,11.18-1.39,11.29.01.01.06-.09.07-.07.08.08-.09,9.82,0,9.91,0,0,1.09-1.11,1.1-1.1.05.05-.9,10.66-.83,10.73.01.01,1.02-1.04,1.03-1.03.06.06-1.8,11.51-1.7,11.6,0,0,1.77-1.8,1.78-1.78.11.11-1.63,11.44-1.59,11.49,0,0,.92-.94.93-.93.07.07-1.65,11.35-1.55,11.45,0,0,1.85-1.86,1.85-1.85.1.1-1.3,11.07-1.23,11.13,0,0,.92-.94.93-.93.04.04-.37,10.16-.31,10.21,0,0,.45-.47.46-.46.09.09-1.74,11.53-1.69,11.58.01.01,1.21-1.23,1.22-1.22.09.09-1.4,11.06-1.28,11.18.01.01,2.01-2.02,2.02-2.02.04.04,4.13,5.71,4.16,5.74.01.01.93-.95.94-.94.03.03,8.45,1.31,8.52,1.38,0,0,1.15-1.17,1.16-1.16.06.06,9.18.63,9.23.67.01.01.33-.34.33-.33.05.05,9.96-.18,10.02-.12,0,0,.96-.97.97-.97.07.07,7.91,1.85,7.98,1.92,0,0,.87-.88.87-.87.04.04,10.19-.37,10.23-.33.01.01.23-.25.24-.24.06.06,8.97.81,9.03.87,0,0,.45-.46.46-.46.09.09,9.67.12,9.72.18,0,0,.87-.88.87-.87.08.08,8.42,1.38,8.47,1.43,0,0,1.55-1.56,1.56-1.56"/>
          </g>
        </g>
        <g>
          <g id="Love_60pct">
            <g id="Love_50pct">
              <path class="cls-7" d="M166.82,91.52c-.19,2.1-.52,4.14-.97,6.06-.26,1.1-.6,2.2-1,3.29-.93,2.51-2.23,5.03-3.81,7.51-1.51,2.39-3.29,4.75-5.22,7.05-1.14,1.35-2.33,2.68-3.56,3.98-1.29,1.36-2.62,2.69-3.97,3.98-.95.91-1.91,1.8-2.87,2.67-1.65,1.49-3.3,2.91-4.92,4.25-1.68,1.4-3.33,2.71-4.9,3.92-2.57,1.98-4.93,3.7-6.91,5.09-3.61,2.53-5.95,3.98-5.95,3.98,0,0-2.35-1.46-5.95-3.98-1.98-1.39-4.35-3.11-6.91-5.09-1.57-1.21-3.22-2.52-4.9-3.92-1.62-1.35-3.27-2.77-4.92-4.25-.96-.87-1.92-1.76-2.87-2.67-1.35-1.29-2.68-2.62-3.97-3.98-1.23-1.3-2.43-2.63-3.56-3.98-1.93-2.29-3.71-4.65-5.22-7.05-1.58-2.48-2.88-4.99-3.81-7.51-.41-1.1-.75-2.2-1-3.29-.45-1.92-.78-3.96-.97-6.06h88.18Z"/>
              <path class="cls-5" d="M166.82,91.52h-88.18c-1.2-13.44,3.44-29.19,19.26-29.2,18.3-.02,24.83,15.66,24.83,15.66,0,0,6.53-15.68,24.83-15.66,15.82.01,20.46,15.77,19.26,29.2Z"/>
            </g>
            <g>
              <path class="cls-13" d="M107.52,104.4c-.36-.74-.84-1.39-1.44-1.97-.6-.57-1.27-1.02-2.02-1.35-.75-.32-1.53-.48-2.33-.48-.52,0-1.06.07-1.62.21s-1.09.32-1.59.53c-.51.21-.96.44-1.36.7-.4.26-.71.5-.92.74-.03-1.4.19-2.81.66-4.22.46-1.41,1.1-2.57,1.9-3.48.13-.16.36-.33.68-.53s.65-.42.97-.66c.32-.24.62-.5.88-.76.26-.26.39-.53.39-.81,0-.3-.05-.56-.16-.79h-3.31c-.18.11-.35.21-.52.31-.53.3-.99.67-1.38,1.11-1.17,1.51-2.02,3.2-2.57,5.1-.54,1.89-.82,3.86-.82,5.91,0,.93.07,1.97.21,3.12.15,1.14.46,2.22.93,3.23.48,1.01,1.16,1.85,2.05,2.53.88.68,2.06,1.01,3.54,1.01.54,0,1.1-.08,1.67-.25.57-.17,1.09-.36,1.57-.58.48-.22.91-.44,1.29-.66.37-.22.64-.39.8-.52.28-.21.6-.49.95-.84.35-.35.68-.74.99-1.19.31-.44.57-.92.78-1.44.21-.52.31-1.05.31-1.6,0-.83-.18-1.61-.54-2.35ZM104.33,108.13c-.39.51-.85.95-1.4,1.32-.54.38-1.12.68-1.73.89-.61.22-1.13.33-1.58.33-.57,0-1.04-.09-1.4-.27-.37-.18-.66-.41-.9-.7-.23-.28-.39-.59-.48-.91-.09-.33-.15-.64-.18-.96,0-.26.09-.56.27-.89.49-1.12,1.2-1.88,2.12-2.29.92-.42,1.93-.69,3.01-.82.46.05.84.15,1.13.31.28.16.54.31.77.47.18.15.34.34.47.54.13.18.24.38.33.6.09.22.13.47.13.76,0,.57-.19,1.11-.58,1.61Z"/>
              <path class="cls-13" d="M119,94.18c.05-.03.18-.04.39-.04.91.23,1.75.53,2.53.89.78.36,1.46.84,2.04,1.44.58.6,1.04,1.34,1.36,2.24.32.89.49,2,.49,3.33,0,1.09-.16,2.11-.47,3.05-.31.95-.77,1.77-1.38,2.47-.61.7-1.37,1.25-2.28,1.65-.91.4-1.95.6-3.11.6-1.27,0-2.41-.21-3.42-.64s-1.87-1-2.57-1.71c-.7-.71-1.24-1.54-1.61-2.49-.38-.95-.56-1.94-.56-2.98,0-.65.08-1.32.23-2.02s.41-1.37.78-2.02c.36-.65.84-1.25,1.42-1.79s1.3-1,2.16-1.36c.49-.16.99-.3,1.48-.43.49-.13.99-.27,1.48-.43.49,0,.84.08,1.05.23ZM118.57,96.94l-1.44.39c-.73.16-1.32.41-1.79.76s-.84.74-1.11,1.17-.47.88-.58,1.36c-.12.48-.18.94-.18,1.38,0,.49.08.99.23,1.5s.4.98.72,1.42c.32.44.73.83,1.21,1.17.48.34,1.04.58,1.69.74h1.17c.08,0,.19,0,.35.02.16.01.36,0,.6-.06.25-.05.55-.18.91-.37.36-.19.79-.49,1.28-.88.88-1.22,1.32-2.44,1.32-3.66,0-.83-.21-1.62-.64-2.37-.43-.75-1.08-1.43-1.96-2.02l-1.6-.39-.19-.16Z"/>
              <path class="cls-13" d="M151.21,105.91c-.6-.95-1.49-1.59-2.68-1.93-.34,0-.64.12-.89.35l-.15.08c-.11.03-.19.04-.27.06-.08.01-.15.02-.23.02-.49.05-.93.22-1.3.49-.38.27-.69.61-.93.99-.25.39-.43.81-.57,1.27-.13.46-.19.89-.19,1.31,0,.62.08,1.21.25,1.77.17.56.41,1.05.74,1.48.32.43.73.77,1.23,1.01.49.25,1.05.37,1.67.37.78,0,1.43-.13,1.97-.39.53-.26.97-.59,1.31-1,.34-.4.58-.85.74-1.36.15-.5.23-.99.23-1.46,0-1.09-.3-2.11-.89-3.05ZM147.83,109.86c-.34,0-.55-.1-.64-.31-.09-.21-.14-.45-.14-.74s.05-.56.15-.81c.1-.26.19-.4.27-.43l.93-.23s0,0,0,0h.04-.04s.01.04.04.04c.23.28.39.66.45,1.13.07.46.12.79.18.97-.52.26-.93.39-1.24.39ZM147.55,91.52h-2.66c-.09.11-.17.23-.25.36-2.02,3.21-4.02,6.46-5.97,9.73-1.96,3.27-3.72,6.69-5.27,10.27-.03.11-.04.25-.04.43,0,.65.18,1.11.53,1.38.35.27.7.41,1.07.41.55,0,1.07-.24,1.56-.74,1.51-3.5,3.25-6.89,5.23-10.17s3.98-6.54,5.97-9.78c.11-.23.15-.51.15-.82,0-.44-.1-.79-.31-1.06ZM136.04,94.24c-.6-.95-1.49-1.59-2.69-1.93-.34,0-.64.12-.89.35l-.15.08c-.11.03-.19.04-.27.06-.08.01-.15.02-.23.02-.5.05-.93.21-1.31.49-.38.27-.69.6-.93.99-.25.39-.43.81-.56,1.26-.13.46-.19.89-.19,1.31,0,.62.08,1.21.25,1.77.17.56.42,1.05.74,1.48.32.43.73.77,1.23,1.01.49.25,1.05.37,1.67.37.77,0,1.43-.13,1.97-.39.53-.26.97-.59,1.3-.99.34-.4.58-.86.74-1.36.15-.5.23-.99.23-1.46,0-1.09-.3-2.11-.89-3.05ZM132.65,98.19c-.34,0-.55-.11-.64-.31-.09-.21-.14-.45-.14-.74s.05-.56.15-.81c.11-.26.19-.4.27-.43l.94-.23s0,0,0,0h.04-.04s.01.04.04.04c.23.29.38.66.45,1.13.06.47.12.79.17.97-.52.26-.93.39-1.24.39Z"/>
            </g>
            <path class="cls-13" d="M101.56,91.52h-3.31c.37-.22.74-.46,1.13-.73.26-.08.51-.12.74-.12.49,0,.88.15,1.17.45.11.12.2.25.27.4Z"/>
            <path class="cls-13" d="M147.55,91.52h-2.66c.15-.17.31-.31.49-.4.28-.14.57-.21.85-.21.44,0,.82.14,1.15.43.06.05.12.12.17.18Z"/>
          </g>
          <g>
            <line class="cls-4" x1="97.63" y1="155.11" x2="80.9" y2="188.57"/>
            <line class="cls-4" x1="147.83" y1="155.11" x2="164.56" y2="188.57"/>
            <line class="cls-4" x1="122.73" y1="163.47" x2="122.73" y2="180.21"/>
            <line class="cls-4" x1="97.63" y1="50.53" x2="80.9" y2="17.06"/>
            <line class="cls-4" x1="147.83" y1="50.53" x2="164.56" y2="17.06"/>
            <line class="cls-4" x1="122.73" y1="42.16" x2="122.73" y2="25.43"/>
          </g>
        </g>
        <g>
          <g>
            <line class="cls-4" x1="35.96" y1="641.87" x2="2.5" y2="658.6"/>
            <line class="cls-4" x1="35.96" y1="591.67" x2="2.5" y2="574.94"/>
            <line class="cls-4" x1="27.6" y1="616.77" x2="10.87" y2="616.77"/>
          </g>
          <g>
            <line class="cls-4" x1="209.5" y1="641.87" x2="242.96" y2="658.6"/>
            <line class="cls-4" x1="209.5" y1="591.67" x2="242.96" y2="574.94"/>
            <line class="cls-4" x1="217.87" y1="616.77" x2="234.6" y2="616.77"/>
          </g>
          <g>
            <path class="cls-11" d="M62.93,598.29c-.13.03-.25.04-.35.04l.23,3.52c.05.81.09,1.62.12,2.44.03.82.04,1.65.04,2.48,0,.44-.16.81-.47,1.09-.31.29-.66.43-1.05.43-.37,0-.72-.12-1.07-.37-.35-.25-.55-.64-.61-1.19,0-2.42-.11-4.88-.33-7.36-.22-2.49-.33-4.93-.33-7.32,0-.47,0-1-.02-1.58-.01-.59,0-1.16.06-1.72.05-.56.15-1.08.29-1.56.14-.48.37-.85.68-1.11.91-.39,1.84-.7,2.79-.94.95-.23,1.92-.46,2.91-.66.99-.21,1.99-.41,3.01-.61s2.04-.45,3.09-.76c.57,0,1.02.14,1.35.43.33.29.49.65.49,1.09,0,.62-.31,1.16-.94,1.6-.89.26-1.76.48-2.64.64-.87.17-1.74.33-2.6.49s-1.71.32-2.56.49c-.85.17-1.7.4-2.56.68-.05.52-.09,1.05-.12,1.58-.03.53-.04,1.07-.04,1.62v.66l.12,2.7c1.67-.42,3.44-.7,5.33-.84,1.89-.14,3.78-.21,5.68-.21.44.16.79.38,1.05.68.26.3.39.62.39.96,0,.39-.14.72-.43.98-.29.26-.65.46-1.09.59-1.8,0-3.55.05-5.27.16-1.72.1-3.44.4-5.16.9Z"/>
            <path class="cls-11" d="M88.63,606.53l-.9.86c-.34.31-.88.54-1.62.68-.74.14-1.52.21-2.32.21-1.09,0-2.03-.12-2.79-.35-.77-.23-1.44-.69-2.01-1.37-.94-1.25-1.41-2.42-1.41-3.52,0-.73.15-1.45.45-2.17.3-.72.72-1.36,1.27-1.93.55-.57,1.22-1.04,2.01-1.41.79-.36,1.69-.55,2.68-.55.42.05.82.14,1.21.27.39.13.75.27,1.09.43.34.16.64.31.92.45.27.14.49.25.64.33l-.23-1.05c-.13-.42-.29-.83-.47-1.23-.18-.4-.4-.8-.66-1.19l-.78-.7c-.21-.05-.4-.12-.59-.21-.18-.09-.42-.14-.7-.14-.76.05-1.5.15-2.23.29-.73.14-1.46.35-2.19.61-.08.03-.2.04-.35.04-.55,0-.97-.16-1.27-.47-.3-.31-.45-.65-.45-1.02,0-.31.08-.59.23-.84.16-.25.46-.5.9-.76.68-.21,1.43-.44,2.25-.68.82-.25,1.65-.37,2.48-.37,1.43,0,2.62.29,3.57.86.95.57,1.71,1.32,2.27,2.25.56.92.95,1.95,1.17,3.07.22,1.12.33,2.23.33,3.32,0,.65-.02,1.35-.06,2.09s-.13,1.43-.27,2.07c-.14.64-.35,1.17-.61,1.58-.26.42-.61.62-1.05.62-.1,0-.21,0-.31-.02-.1-.01-.17-.03-.2-.06ZM88.05,601.81l-.27-.04c-.39-.08-.75-.21-1.07-.39-.33-.18-.64-.36-.96-.55-.31-.18-.61-.34-.9-.49-.29-.14-.57-.21-.86-.21-.91.1-1.7.42-2.36.94-.66.52-1,1.15-1,1.88,0,.21.05.43.16.66.1.23.27.53.51.9.68.42,1.42.62,2.23.62.94,0,1.76-.09,2.46-.27l.51-.51c.26-.34.61-.51,1.05-.51h.2c.03-.21.05-.42.08-.62.03-.21.06-.42.12-.62l.12-.78Z"/>
            <path class="cls-11" d="M102.11,607.16l-.39.08h-.12c-.47,0-.85-.22-1.13-.66-.29-.44-.52-.94-.7-1.5-.18-.56-.31-1.1-.39-1.62-.08-.52-.14-.86-.2-1.02-.31-1.02-.64-1.96-1-2.83-.35-.87-.7-1.74-1.04-2.6l-.47-1.64c-.13-.44-.21-.79-.25-1.04-.04-.25-.06-.44-.06-.57,0-.57.19-.96.57-1.17.38-.21.76-.31,1.15-.31.34,0,.6.06.78.18.18.12.33.31.45.59s.23.64.35,1.09c.12.46.28,1.04.49,1.74.36.96.73,1.93,1.09,2.91.36.98.73,1.99,1.09,3.03l.31-.62c.18-.23.4-.68.66-1.33.6-.96,1.12-1.91,1.56-2.83.44-.92.75-1.76.94-2.52.1-.47.32-.81.64-1.04.33-.22.63-.33.92-.33.42,0,.79.14,1.13.43.34.29.51.73.51,1.33-.31,1.17-.73,2.21-1.25,3.11-.52.9-1.02,1.8-1.48,2.71l-1.64,3.12c-.37.68-.7,1.29-1.02,1.84s-.62.96-.94,1.25l-.59.23Z"/>
            <path class="cls-11" d="M114.22,592.82c-.37-.42-.55-.82-.55-1.21,0-.44.14-.82.41-1.13s.63-.47,1.07-.47c.34,0,.68.1,1.02.29.34.2.65.43.94.7.29.27.53.54.74.8.21.26.34.44.39.55.05-.03.17-.04.35-.04.49,0,.97.12,1.43.37.46.25.87.57,1.25.96.38.39.71.81,1,1.25.29.44.53.86.74,1.25.21.39.4.81.57,1.27.17.46.31.92.41,1.39.1.47.18.92.23,1.37.05.44.08.85.08,1.21,0,1.07-.14,2.06-.41,2.99-.27.92-.72,1.74-1.33,2.44-.61.7-1.41,1.26-2.4,1.66-.99.4-2.2.61-3.63.61-1.04,0-1.89-.31-2.56-.94s-1.18-1.36-1.54-2.21c-.37-.85-.62-1.71-.76-2.6-.14-.88-.21-1.6-.21-2.15s.06-1.03.2-1.52c.13-.49.3-.96.51-1.39.21-.43.42-.81.64-1.15.22-.34.44-.62.64-.86l1.95-2.3c-.03-.1-.11-.23-.25-.37-.14-.14-.28-.28-.41-.41l-.51-.35ZM118.16,595.32l-.16.23c-.31.39-.66.79-1.04,1.21-.38.42-.74.85-1.07,1.29-.34.44-.62.92-.86,1.45-.23.52-.35,1.09-.35,1.72,0,.57.04,1.14.14,1.7.09.56.22,1.06.39,1.5.17.44.38.8.64,1.07.26.27.56.41.9.41.29,0,.58-.03.88-.08.3-.05.57-.1.8-.16l1.41-.7c.08-.1.21-.24.39-.41.18-.17.33-.34.43-.53.23-.86.35-1.71.35-2.54,0-1.09-.18-2.14-.55-3.14-.37-1-.92-1.92-1.68-2.75l-.47-.23h-.04c-.05,0-.09-.01-.12-.04Z"/>
            <path class="cls-11" d="M128.71,606.14c0-.7.02-1.43.06-2.19.04-.75.12-1.47.25-2.15l.27-2.89.35-2.11c.08-.34.12-.65.12-.94,0-.31-.06-.64-.18-.98-.12-.34-.42-.51-.92-.51-.21,0-.41-.06-.61-.18s-.37-.26-.53-.43c-.16-.17-.28-.34-.37-.53-.09-.18-.14-.35-.14-.51,0-.31.16-.65.47-1.02.31-.36.74-.55,1.29-.55,1.35.13,2.34.51,2.97,1.13s.94,1.39.94,2.3c.78-.55,1.69-.96,2.73-1.23,1.04-.27,2.28-.46,3.71-.57.57,0,1.02.15,1.33.45.31.3.47.67.47,1.11,0,.39-.13.74-.39,1.04-.26.3-.61.49-1.05.57-1.2.08-2.21.21-3.05.39-.83.18-1.54.48-2.11.88-.57.4-1.02.94-1.33,1.62-.31.68-.55,1.55-.7,2.62l-.12.59v1.6c-.03.39-.05.79-.06,1.19-.01.4-.05.81-.1,1.23l-.12.7-.23.62c-.42.49-.9.74-1.45.74-.94,0-1.45-.55-1.52-1.64v-.39Z"/>
            <path class="cls-11" d="M146.6,590.99c-.31-.13-.57-.33-.76-.61s-.29-.55-.29-.84c0-.39.14-.77.41-1.13.27-.36.71-.55,1.31-.55.75.13,1.42.35,1.99.66.57.31,1.16.51,1.76.59.47.13.81.36,1.02.68.21.33.31.64.31.96,0,.37-.14.72-.41,1.05-.27.34-.63.51-1.07.51-.39,0-.76-.05-1.11-.16-.35-.1-.7-.23-1.04-.39-.34-.16-.68-.31-1.02-.45-.34-.14-.7-.25-1.09-.33ZM148.28,596.69c.13-.6.36-1,.7-1.19.34-.2.73-.29,1.17-.29.36.05.68.25.94.59.26.34.39.76.39,1.25-.05,1.02-.1,1.92-.16,2.71-.05.79-.09,1.57-.12,2.32-.03.76-.05,1.54-.06,2.36-.01.82-.02,1.76-.02,2.83,0,.44-.17.81-.51,1.11-.34.3-.69.45-1.05.45s-.72-.13-1.05-.39c-.34-.26-.53-.66-.59-1.21,0-2.06.04-3.81.12-5.27l.23-5.27Z"/>
            <path class="cls-11" d="M168.67,603.8c.34-.39.63-.64.88-.76.25-.12.51-.18.8-.18.44,0,.77.18,1,.55.22.37.33.78.33,1.25-.13.5-.35.91-.64,1.25-.3.34-.66.61-1.07.82-.42.21-.87.36-1.37.45-.5.09-.99.14-1.48.14-.52-.03-1.04-.1-1.54-.23-.51-.13-.98-.31-1.43-.53-.44-.22-.83-.48-1.15-.78-.33-.3-.55-.64-.68-1.04-.6-1.48-1-3.01-1.21-4.59-.21-1.58-.31-3.11-.31-4.59v-.98l-2.42.35c-.52-.05-.92-.23-1.19-.55s-.41-.69-.41-1.13c0-.29.1-.58.31-.88.21-.3.52-.51.94-.64l2.85-.35c0-.91.03-1.82.1-2.71.06-.9.11-1.8.14-2.71.29-.91.81-1.42,1.56-1.52.75,0,1.3.48,1.64,1.45-.05,1.04-.13,2.34-.23,3.91l-.08,1.09c.68-.1,1.38-.18,2.11-.23.73-.05,1.5-.08,2.3-.08.94.34,1.41.86,1.41,1.56-.05.37-.2.7-.43,1-.23.3-.59.5-1.05.61-1.54,0-3.01.12-4.41.35v1.02c0,.83.03,1.66.08,2.48.05.82.12,1.6.21,2.34.09.74.21,1.42.37,2.03.16.61.34,1.11.55,1.5.34.16.73.31,1.17.45.44.14.87.21,1.29.21.23,0,.55-.06.94-.2l.16-.12Z"/>
            <path class="cls-11" d="M177.77,600.75l-.12-.43c.31,1.38,1.07,2.51,2.27,3.4.26.21.59.39,1,.55.4.16.81.3,1.21.43.4.13.76.23,1.07.29.31.07.51.1.59.1.26-.23.59-.35.98-.35.47.05.83.24,1.09.57.26.33.39.67.39,1.04,0,.57-.27,1.04-.8,1.39-.53.35-1.1.53-1.7.53-1.28,0-2.49-.25-3.63-.76-1.15-.51-2.15-1.19-3.01-2.05s-1.56-1.85-2.09-2.97c-.53-1.12-.83-2.3-.88-3.55,0-.86.06-1.78.2-2.77.13-.99.4-1.91.82-2.75.42-.85,1.02-1.56,1.82-2.13.79-.57,1.86-.86,3.18-.86.83,0,1.61.18,2.34.53.73.35,1.36.83,1.89,1.43.53.6.96,1.28,1.27,2.05.31.77.47,1.57.47,2.4,0,.76-.14,1.42-.41,1.99-.27.57-.64,1.05-1.11,1.43-.47.38-1.02.66-1.66.86-.64.2-1.31.29-2.01.29-.29,0-.61-.03-.96-.08-.35-.05-.68-.11-1-.18-.31-.06-.58-.13-.8-.2-.22-.06-.36-.12-.41-.18ZM177.46,596.96c-.05.03-.08.05-.08.08h.08c.18,0,.36.05.55.14.18.09.34.2.47.31.13.12.24.22.33.31.09.09.15.14.18.14.39.18.82.27,1.29.27.75,0,1.39-.11,1.91-.33.52-.22.78-.76.78-1.62-.16-.52-.33-.95-.53-1.29-.2-.34-.51-.66-.96-.98l-.82-.35h-.55c-.21,0-.48.05-.82.16-.34.1-.68.25-1.02.43-.1.16-.21.38-.31.68-.1.3-.2.59-.27.88-.08.29-.14.55-.18.78s-.06.37-.06.39Z"/>
            <path class="cls-11" d="M90.97,627.71c.26.34.39.69.39,1.05,0,.44-.17.79-.51,1.04-.34.25-.74.37-1.21.37-.23,0-.48-.07-.72-.21-.25-.14-.5-.31-.74-.51-.25-.2-.5-.4-.74-.62-.25-.22-.48-.4-.68-.53-.31-.08-.56-.16-.74-.25-.18-.09-.48-.16-.9-.21-.99.13-1.89.51-2.7,1.15-.81.64-1.5,1.43-2.09,2.38-.59.95-1.04,2-1.37,3.14-.33,1.15-.49,2.28-.49,3.4,0,.91.12,1.76.35,2.56.23.79.6,1.5,1.09,2.11.49.61,1.1,1.09,1.82,1.45.72.35,1.57.53,2.56.53,1.09,0,2.13-.22,3.12-.66.99-.44,1.71-1.08,2.15-1.91.42-.6.88-.9,1.41-.9.36,0,.72.12,1.07.37.35.25.53.61.53,1.07,0,.39-.1.76-.31,1.11-.21.35-.47.68-.78.98-.31.3-.65.57-1.02.82-.37.25-.7.46-1.02.64-.76.52-1.56.9-2.42,1.13s-1.71.35-2.54.35c-1.22,0-2.38-.2-3.48-.61s-2.05-.98-2.87-1.74c-.82-.75-1.48-1.69-1.97-2.81-.5-1.12-.74-2.41-.74-3.87,0-2.73.53-5.19,1.58-7.36,1.05-2.17,2.53-3.96,4.43-5.37.47-.36,1-.63,1.6-.8.6-.17,1.22-.25,1.88-.25.73,0,1.35.08,1.88.23.52.16,1.01.37,1.46.64.46.27.89.59,1.31.96.42.37.88.74,1.41,1.13Z"/>
            <path class="cls-11" d="M96.05,625.99c-.39-.13-.66-.34-.82-.62-.16-.29-.23-.59-.23-.9,0-.36.16-.71.47-1.04.31-.33.7-.49,1.17-.49.83,0,1.51.18,2.03.55.52.37.92.83,1.21,1.39.29.56.48,1.17.59,1.84.1.66.16,1.28.16,1.86v1.05c0,1.43.05,2.81.16,4.12.1,1.32.21,2.56.31,3.73.83-.83,1.65-1.52,2.46-2.05.81-.53,1.76-.8,2.85-.8.81,0,1.49.17,2.05.51.56.34,1.04.79,1.43,1.35.39.56.7,1.21.94,1.95s.42,1.51.55,2.3c.13.79.23,1.6.31,2.4.08.81.16,1.55.23,2.23,0,.52-.16.92-.47,1.21-.31.29-.66.43-1.05.43-.55,0-.95-.18-1.21-.55-.26-.36-.44-.83-.53-1.39-.09-.56-.14-1.17-.14-1.84s-.04-1.31-.12-1.93c-.18-.78-.4-1.48-.66-2.11-.26-.62-.65-1.12-1.17-1.48-.99.1-1.81.5-2.46,1.17-.65.68-1.17,1.49-1.56,2.44-.39.95-.66,1.97-.82,3.05-.16,1.08-.23,2.06-.23,2.95,0,.47-.16.85-.49,1.13-.33.29-.67.43-1.04.43s-.72-.12-1.07-.35-.55-.64-.61-1.21c0-2.45-.07-4.86-.21-7.25-.14-2.38-.31-4.76-.49-7.13-.08-1.17-.15-2.33-.21-3.48-.07-1.15-.19-2.19-.37-3.12-.13-.03-.44-.14-.94-.35Z"/>
            <path class="cls-11" d="M117.85,630.99c-.31-.13-.57-.33-.76-.61s-.29-.55-.29-.84c0-.39.14-.77.41-1.13.27-.36.71-.55,1.31-.55.75.13,1.42.35,1.99.66.57.31,1.16.51,1.76.59.47.13.81.36,1.02.68.21.33.31.64.31.96,0,.37-.14.72-.41,1.05-.27.34-.63.51-1.07.51-.39,0-.76-.05-1.11-.16-.35-.1-.7-.23-1.04-.39-.34-.16-.68-.31-1.02-.45-.34-.14-.7-.25-1.09-.33ZM119.53,636.69c.13-.6.36-1,.7-1.19.34-.2.73-.29,1.17-.29.36.05.68.25.94.59.26.34.39.76.39,1.25-.05,1.02-.1,1.92-.16,2.71-.05.79-.09,1.57-.12,2.32-.03.76-.05,1.54-.06,2.36-.01.82-.02,1.76-.02,2.83,0,.44-.17.81-.51,1.11-.34.3-.69.45-1.05.45s-.72-.13-1.05-.39c-.34-.26-.53-.66-.59-1.21,0-2.06.04-3.81.12-5.27l.23-5.27Z"/>
            <path class="cls-11" d="M131.09,625.52c.13-.44.33-.79.61-1.05.27-.26.59-.39.96-.39.78,0,1.33.47,1.64,1.41,0,1.95-.01,3.8-.04,5.53-.03,1.73-.04,3.37-.04,4.9,0,2.6.16,5.43.47,8.48.23.08.53.16.88.25.35.09.69.22,1.02.39.33.17.6.38.82.64.22.26.33.59.33.98s-.15.74-.45,1.04c-.3.3-.66.45-1.07.45-.29,0-.6-.08-.94-.23-.91-.44-1.61-.75-2.09-.92-.48-.17-.85-.36-1.09-.59-.25-.22-.41-.57-.49-1.05-.08-.48-.16-1.26-.23-2.32-.18-.96-.27-2.02-.27-3.16v-14.34Z"/>
            <path class="cls-11" d="M148.75,625.52c-.34-.16-.6-.38-.78-.68-.18-.3-.27-.59-.27-.88,0-.36.14-.72.43-1.05.29-.34.72-.51,1.29-.51,1.25.23,2.2.58,2.85,1.04.65.46,1.12,1.02,1.41,1.68.29.66.44,1.43.47,2.29.03.86.04,1.8.04,2.81s-.01,1.91-.04,2.85c-.03.94-.04,1.9-.04,2.89v3.2c0,.5-.01,1.02-.04,1.58-.03.56-.05,1.11-.08,1.66-.03.55-.05,1.07-.08,1.56-.03.5-.04.91-.04,1.25,0,1.25-.41,2.19-1.23,2.83-.82.64-2.29.96-4.39.96-1.12,0-2.14-.27-3.07-.82-.92-.55-1.72-1.24-2.38-2.09-.66-.85-1.19-1.77-1.56-2.77-.38-1-.57-1.97-.57-2.91,0-1.28.26-2.34.78-3.2.52-.86,1.17-1.54,1.95-2.03.78-.49,1.61-.85,2.48-1.05.87-.21,1.66-.31,2.36-.31.44,0,.88,0,1.33.02.44.01.9.02,1.37.02.03-.86.05-1.78.08-2.75.03-.98.04-1.93.04-2.87,0-.42-.03-.81-.1-1.17-.07-.36-.2-.72-.41-1.05-.29-.16-.56-.25-.82-.29-.26-.04-.59-.1-.98-.18ZM150.9,637.12l.04-.08-.04-.04c-.62,0-1.28-.01-1.97-.04-.69-.03-1.35.02-1.99.14-.64.12-1.21.34-1.72.66-.51.33-.89.83-1.15,1.5-.05.16-.1.34-.14.55-.04.21-.08.4-.14.59.21,1.72.73,2.98,1.56,3.79.83.81,2.11,1.32,3.83,1.52.26-.08.51-.14.76-.2.25-.05.45-.09.61-.12.05-1.2.12-2.41.21-3.63.09-1.22.14-2.49.14-3.79v-.86Z"/>
            <path class="cls-11" d="M164.1,642.71h.2c.31,0,.59.08.82.23l.16.16c.44.26.81.68,1.11,1.25.3.57.45,1.16.45,1.76,0,.7-.23,1.35-.7,1.93s-1.26.88-2.38.88c-.91,0-1.58-.24-2.01-.72-.43-.48-.64-1.13-.64-1.93,0-.39.06-.78.2-1.17.13-.39.32-.75.57-1.07.25-.33.56-.61.94-.84.38-.23.81-.39,1.31-.47ZM162.69,624.39c.08-.47.28-.84.61-1.11.33-.27.67-.41,1.04-.41s.72.11,1.05.33c.34.22.6.58.78,1.07,0,2.45-.05,4.82-.16,7.11-.1,2.29-.16,4.66-.16,7.11-.08.65-.29,1.12-.62,1.41-.34.29-.72.43-1.13.43-.39,0-.77-.14-1.13-.41-.37-.27-.55-.71-.55-1.31,0-2.45.04-4.82.14-7.11.09-2.29.14-4.66.14-7.11Z"/>
          </g>
        </g>
      </g>
    </g>
  </g>
</svg>