<?xml version="1.0" encoding="UTF-8"?>
<svg id="Layer_2" data-name="Layer 2" xmlns="http://www.w3.org/2000/svg" viewBox="0 0 576 434.5">
  <defs>
    <style>
      .cls-1 {
        fill: #999;
      }

      .cls-1, .cls-2, .cls-3, .cls-4 {
        stroke: #4d2f2e;
        stroke-miterlimit: 10;
        stroke-width: 5px;
      }

      .cls-2, .cls-4 {
        fill: #dfdac4;
      }

      .cls-3 {
        fill: none;
      }

      .cls-4 {
        stroke-linecap: round;
      }

      .cls-5 {
        fill: #4d2f2e;
        stroke-width: 0px;
      }
    </style>
  </defs>
  <g id="Layer_1-2" data-name="Layer 1">
    <g id="Rules_Questions">
      <g id="Prompt">
        <polygon class="cls-4" points="375 146.5 201 146.5 157.5 74.5 201 2.5 375 2.5 418.5 74.5 375 146.5"/>
        <path class="cls-5" d="M280.8,46.67c.24.49.41.96.49,1.4.08.45.12.88.12,1.28,0,1.63-.57,2.87-1.71,3.72-1.14.85-2.32,1.28-3.54,1.28-1.3,0-2.4-.35-3.3-1.04-.9-.69-1.63-1.53-2.2-2.5-.57-.98-.98-2.01-1.22-3.11-.24-1.1-.37-2.05-.37-2.87,0-1.95.57-3.8,1.71-5.55,1.14-1.75,2.62-3.27,4.46-4.58,1.83-1.3,3.95-2.32,6.35-3.05,2.4-.73,4.9-1.1,7.51-1.1,2.2,0,4.43.35,6.71,1.04,2.28.69,4.35,1.73,6.23,3.11,1.87,1.38,3.4,3.13,4.58,5.25,1.18,2.12,1.77,4.6,1.77,7.45,0,2.36-.47,4.54-1.4,6.53-.94,2-2.14,3.89-3.6,5.68-1.46,1.79-3.07,3.5-4.82,5.13-1.75,1.63-3.48,3.3-5.19,5-.9.9-1.79,1.63-2.69,2.2l-.24.24c0,.41-.02.92-.06,1.53-.04.61-.06,1.24-.06,1.89.24,1.95.43,3.97.55,6.04.12,2.07.22,4.21.31,6.41-.33,2.04-1.04,3.48-2.14,4.33-1.1.85-2.34,1.28-3.72,1.28-1.14,0-2.24-.47-3.3-1.4-1.06-.93-1.59-2.22-1.59-3.84,0-1.87-.2-4.03-.61-6.47-.41-2.44-.61-4.96-.61-7.57,0-2.03.28-3.82.85-5.37.57-1.54,1.38-2.95,2.44-4.21,1.06-1.26,2.28-2.44,3.66-3.54,1.38-1.1,2.89-2.26,4.52-3.48,2.03-1.54,3.68-3.11,4.94-4.7,1.26-1.59,1.89-3.44,1.89-5.55s-.75-3.8-2.26-4.82c-1.51-1.02-3.28-1.53-5.31-1.53s-3.89.39-5.8,1.16c-1.91.77-3.32,1.61-4.21,2.5,0,.24.28.85.85,1.83ZM285.92,100.38h.61c.98,0,1.83.24,2.56.73l.49.49c1.38.81,2.54,2.12,3.48,3.91.93,1.79,1.4,3.62,1.4,5.49,0,2.2-.73,4.21-2.2,6.04-1.46,1.83-3.95,2.75-7.45,2.75-2.85,0-4.94-.75-6.29-2.26-1.34-1.51-2.01-3.52-2.01-6.04,0-1.22.2-2.44.61-3.66.41-1.22,1-2.34,1.77-3.36.77-1.02,1.75-1.89,2.93-2.62,1.18-.73,2.54-1.22,4.09-1.46Z"/>
      </g>
      <g id="TopRow">
        <g>
          <line class="cls-3" x1="288" y1="223.41" x2="0" y2="223.41"/>
          <polygon class="cls-2" points="238.95 259.84 94.95 259.84 58.95 223.84 94.95 187.84 238.95 187.84 274.95 223.84 238.95 259.84"/>
          <g>
            <path class="cls-5" d="M158.78,240.28h.2c.31,0,.59.08.82.23l.16.16c.44.26.81.68,1.11,1.25.3.57.45,1.16.45,1.76,0,.7-.23,1.35-.7,1.93s-1.26.88-2.38.88c-.91,0-1.58-.24-2.01-.72-.43-.48-.64-1.13-.64-1.93,0-.39.06-.78.2-1.17.13-.39.32-.75.57-1.07.25-.33.56-.61.94-.84.38-.23.81-.39,1.31-.47Z"/>
            <path class="cls-5" d="M170.11,240.28h.2c.31,0,.59.08.82.23l.16.16c.44.26.81.68,1.11,1.25.3.57.45,1.16.45,1.76,0,.7-.23,1.35-.7,1.93s-1.26.88-2.38.88c-.91,0-1.58-.24-2.01-.72-.43-.48-.64-1.13-.64-1.93,0-.39.06-.78.2-1.17.13-.39.32-.75.57-1.07.25-.33.56-.61.94-.84.38-.23.81-.39,1.31-.47Z"/>
            <path class="cls-5" d="M181.44,240.28h.2c.31,0,.59.08.82.23l.16.16c.44.26.81.68,1.11,1.25.3.57.45,1.16.45,1.76,0,.7-.23,1.35-.7,1.93s-1.26.88-2.38.88c-.91,0-1.58-.24-2.01-.72-.43-.48-.64-1.13-.64-1.93,0-.39.06-.78.2-1.17.13-.39.32-.75.57-1.07.25-.33.56-.61.94-.84.38-.23.81-.39,1.31-.47Z"/>
          </g>
          <g>
            <path class="cls-5" d="M99.67,228.47c-.2-.04-.37-.06-.53-.06-.08,0-.27.28-.59.85-.31.57-.67,1.21-1.08,1.93-.41.72-.81,1.45-1.2,2.17-.39.72-.68,1.24-.88,1.55-.63.74-1.33,1.11-2.11,1.11-.59,0-1.09-.21-1.52-.62-.43-.41-.64-1-.64-1.79,0-.31.02-.57.06-.76,1.29-2.26,2.52-4.49,3.69-6.68,1.17-2.19,2.39-4.36,3.66-6.5,1.27-2.15,2.61-4.25,4.01-6.3s2.99-4.05,4.75-6.01c.27-.31.57-.52.88-.62.31-.1.6-.17.88-.21.59,0,1.08.21,1.49.64.41.43.65.96.73,1.58-.12.43-.25.72-.41.88l.47-.23c.51,0,1.04.14,1.61.41.57.27.97.8,1.2,1.58.31,2.19.68,4.31,1.11,6.36.43,2.05.85,4.1,1.26,6.15s.78,4.11,1.11,6.18c.33,2.07.54,4.22.62,6.45,0,.78-.23,1.38-.7,1.79s-.98.62-1.52.62c-.59,0-1.14-.18-1.67-.53s-.83-.96-.91-1.82c-.08-2.73-.31-5.31-.7-7.73-.08.08-.29.14-.64.18-2.11,0-4.21-.1-6.3-.29-2.09-.2-4.13-.29-6.12-.29ZM101.72,223.78c1.41.08,3.05.18,4.92.29s3.59.18,5.16.18h.06l-.06-.29c-.12-.39-.25-.96-.41-1.7-.16-.74-.32-1.54-.5-2.4-.18-.86-.35-1.75-.53-2.67-.18-.92-.34-1.75-.5-2.49-.16-.74-.33-1.58-.53-2.52-.35.31-.84.88-1.46,1.7-.55.7-1.25,1.73-2.11,3.08-.86,1.35-1.93,3.17-3.22,5.48l-.82,1.35Z"/>
            <path class="cls-5" d="M129.38,237.26h.29c.47,0,.88.12,1.23.35l.23.23c.66.39,1.22,1.02,1.67,1.88.45.86.67,1.74.67,2.64,0,1.05-.35,2.02-1.05,2.9s-1.9,1.32-3.57,1.32c-1.37,0-2.37-.36-3.02-1.08-.64-.72-.97-1.69-.97-2.9,0-.59.1-1.17.29-1.76.19-.59.48-1.12.85-1.61.37-.49.84-.91,1.41-1.26.57-.35,1.22-.59,1.96-.7Z"/>
          </g>
        </g>
        <g>
          <line class="cls-3" x1="288" y1="223.41" x2="576" y2="223.41"/>
          <polygon class="cls-2" points="337.05 259.84 481.05 259.84 517.05 223.84 481.05 187.84 337.05 187.84 301.05 223.84 337.05 259.84"/>
          <g>
            <path class="cls-5" d="M401.78,240.28h.2c.31,0,.59.08.82.23l.16.16c.44.26.81.68,1.11,1.25.3.57.45,1.16.45,1.76,0,.7-.23,1.35-.7,1.93s-1.26.88-2.38.88c-.91,0-1.58-.24-2.01-.72-.43-.48-.64-1.13-.64-1.93,0-.39.06-.78.2-1.17.13-.39.32-.75.57-1.07.25-.33.56-.61.94-.84.38-.23.81-.39,1.31-.47Z"/>
            <path class="cls-5" d="M413.11,240.28h.2c.31,0,.59.08.82.23l.16.16c.44.26.81.68,1.11,1.25.3.57.45,1.16.45,1.76,0,.7-.23,1.35-.7,1.93s-1.26.88-2.38.88c-.91,0-1.58-.24-2.01-.72-.43-.48-.64-1.13-.64-1.93,0-.39.06-.78.2-1.17.13-.39.32-.75.57-1.07.25-.33.56-.61.94-.84.38-.23.81-.39,1.31-.47Z"/>
            <path class="cls-5" d="M424.44,240.28h.2c.31,0,.59.08.82.23l.16.16c.44.26.81.68,1.11,1.25.3.57.45,1.16.45,1.76,0,.7-.23,1.35-.7,1.93s-1.26.88-2.38.88c-.91,0-1.58-.24-2.01-.72-.43-.48-.64-1.13-.64-1.93,0-.39.06-.78.2-1.17.13-.39.32-.75.57-1.07.25-.33.56-.61.94-.84.38-.23.81-.39,1.31-.47Z"/>
          </g>
          <g>
            <path class="cls-5" d="M337.86,209.12l.18-.29c.16-.31.48-.59.97-.82.49-.23,1.06-.43,1.73-.59.66-.16,1.37-.27,2.11-.35.74-.08,1.46-.12,2.17-.12,1.25,0,2.31.24,3.19.73.88.49,1.59,1.09,2.14,1.82.55.72.95,1.5,1.2,2.34.25.84.38,1.61.38,2.31-.04.9-.16,1.78-.35,2.64-.2.86-.51,1.68-.94,2.46l-.64,1.17c1.72,0,3.12.17,4.22.5,1.09.33,1.95.82,2.58,1.46.62.64,1.05,1.45,1.29,2.4.23.96.35,2.06.35,3.31,0,1.52-.14,2.87-.41,4.04-.27,1.17-.65,2.21-1.14,3.11-.49.9-1.09,1.7-1.82,2.4-.72.7-1.53,1.37-2.43,1.99-1.09.86-2.32,1.44-3.69,1.73-1.37.29-2.7.54-3.98.73-.82-.08-1.39-.27-1.7-.59l-.12-.23c-.43.31-.88.49-1.35.53-.59,0-1.14-.15-1.67-.44s-.83-.89-.91-1.79l-.18-4.45-.18-1.88c-.35-2.26-.68-4.36-1-6.27-.31-1.91-.6-3.74-.85-5.48-.25-1.74-.49-3.44-.7-5.1-.22-1.66-.4-3.41-.56-5.24.16-.7.44-1.2.85-1.49s.83-.48,1.26-.56ZM341.85,221.83v.06c.08,0,.37-.13.88-.38.51-.25.92-.42,1.23-.5l.18-.18c.78-.9,1.46-1.96,2.05-3.19s.88-2.39.88-3.49c0-.74-.17-1.39-.5-1.93-.33-.55-.99-.82-1.96-.82-.63,0-1.31.1-2.05.29-.74.2-1.39.33-1.93.41.04.78.11,1.61.21,2.49.1.88.21,1.75.32,2.61.12.86.23,1.69.35,2.49.12.8.23,1.51.35,2.14ZM346.54,224.88c-.27.55-.79,1.03-1.55,1.44s-1.46.62-2.08.62h-.23l.76,5.33c.27,2.07.45,3.89.53,5.45v.06h.06c.08,0,.18-.02.29-.06,6.21-.94,9.32-3.83,9.32-8.67,0-.59-.05-1.21-.15-1.88-.1-.66-.24-1.35-.44-2.05l-.06-.06c-.31-.12-.78-.24-1.41-.38-.63-.14-1.33-.21-2.11-.21-.9,0-1.88.14-2.93.41Z"/>
            <path class="cls-5" d="M369.09,239.06h.29c.47,0,.88.12,1.23.35l.23.23c.66.39,1.22,1.02,1.67,1.88.45.86.67,1.74.67,2.64,0,1.05-.35,2.02-1.05,2.9s-1.9,1.32-3.57,1.32c-1.37,0-2.37-.36-3.02-1.08-.64-.72-.97-1.69-.97-2.9,0-.59.1-1.17.29-1.76.19-.59.48-1.12.85-1.61.37-.49.84-.91,1.41-1.26.57-.35,1.22-.59,1.96-.7Z"/>
          </g>
        </g>
      </g>
      <g id="BottomRow">
        <g>
          <line class="cls-3" x1="288" y1="313.41" x2="0" y2="313.41"/>
          <polygon class="cls-2" points="238.95 349.84 94.95 349.84 58.95 313.84 94.95 277.84 238.95 277.84 274.95 313.84 238.95 349.84"/>
          <g>
            <path class="cls-5" d="M158.78,330.28h.2c.31,0,.59.08.82.23l.16.16c.44.26.81.68,1.11,1.25.3.57.45,1.16.45,1.76,0,.7-.23,1.35-.7,1.93s-1.26.88-2.38.88c-.91,0-1.58-.24-2.01-.72-.43-.48-.64-1.13-.64-1.93,0-.39.06-.78.2-1.17.13-.39.32-.75.57-1.07.25-.33.56-.61.94-.84.38-.23.81-.39,1.31-.47Z"/>
            <path class="cls-5" d="M170.11,330.28h.2c.31,0,.59.08.82.23l.16.16c.44.26.81.68,1.11,1.25.3.57.45,1.16.45,1.76,0,.7-.23,1.35-.7,1.93s-1.26.88-2.38.88c-.91,0-1.58-.24-2.01-.72-.43-.48-.64-1.13-.64-1.93,0-.39.06-.78.2-1.17.13-.39.32-.75.57-1.07.25-.33.56-.61.94-.84.38-.23.81-.39,1.31-.47Z"/>
            <path class="cls-5" d="M181.44,330.28h.2c.31,0,.59.08.82.23l.16.16c.44.26.81.68,1.11,1.25.3.57.45,1.16.45,1.76,0,.7-.23,1.35-.7,1.93s-1.26.88-2.38.88c-.91,0-1.58-.24-2.01-.72-.43-.48-.64-1.13-.64-1.93,0-.39.06-.78.2-1.17.13-.39.32-.75.57-1.07.25-.33.56-.61.94-.84.38-.23.81-.39,1.31-.47Z"/>
          </g>
          <g>
            <path class="cls-5" d="M115.96,300.25c.39.51.59,1.04.59,1.58,0,.67-.25,1.18-.76,1.55-.51.37-1.11.56-1.82.56-.35,0-.71-.11-1.08-.32-.37-.21-.74-.47-1.11-.76-.37-.29-.74-.61-1.11-.94-.37-.33-.71-.59-1.03-.79-.47-.12-.84-.24-1.11-.38-.27-.14-.72-.24-1.35-.32-1.48.2-2.83.77-4.04,1.73-1.21.96-2.26,2.15-3.13,3.57-.88,1.43-1.56,3-2.05,4.72-.49,1.72-.73,3.42-.73,5.1,0,1.37.18,2.65.53,3.84.35,1.19.9,2.25,1.64,3.16.74.92,1.65,1.64,2.72,2.17,1.07.53,2.35.79,3.84.79,1.64,0,3.2-.33,4.69-1,1.48-.66,2.56-1.62,3.22-2.87.62-.9,1.33-1.35,2.11-1.35.55,0,1.08.19,1.61.56.53.37.79.91.79,1.61,0,.59-.16,1.14-.47,1.67-.31.53-.7,1.02-1.17,1.46-.47.45-.98.86-1.52,1.23-.55.37-1.05.69-1.52.97-1.13.78-2.34,1.35-3.63,1.7s-2.56.53-3.81.53c-1.84,0-3.57-.3-5.21-.91s-3.08-1.47-4.31-2.61c-1.23-1.13-2.22-2.54-2.96-4.22-.74-1.68-1.11-3.61-1.11-5.8,0-4.1.79-7.78,2.37-11.04,1.58-3.26,3.8-5.95,6.65-8.06.7-.55,1.5-.95,2.4-1.2.9-.25,1.84-.38,2.81-.38,1.09,0,2.03.12,2.81.35.78.23,1.51.56,2.2.97.68.41,1.34.89,1.96,1.44.62.55,1.33,1.11,2.11,1.7Z"/>
            <path class="cls-5" d="M129.61,327.26h.29c.47,0,.88.12,1.23.35l.23.23c.66.39,1.22,1.02,1.67,1.88.45.86.67,1.74.67,2.64,0,1.05-.35,2.02-1.05,2.9s-1.9,1.32-3.57,1.32c-1.37,0-2.37-.36-3.02-1.08-.64-.72-.97-1.69-.97-2.9,0-.59.1-1.17.29-1.76.19-.59.48-1.12.85-1.61.37-.49.84-.91,1.41-1.26.57-.35,1.22-.59,1.96-.7Z"/>
          </g>
        </g>
        <g>
          <line class="cls-3" x1="288" y1="313.41" x2="576" y2="313.41"/>
          <polygon class="cls-1" points="337.05 349.84 481.05 349.84 517.05 313.84 481.05 277.84 337.05 277.84 301.05 313.84 337.05 349.84"/>
          <g>
            <path class="cls-5" d="M401.78,330.28h.2c.31,0,.59.08.82.23l.16.16c.44.26.81.68,1.11,1.25.3.57.45,1.16.45,1.76,0,.7-.23,1.35-.7,1.93s-1.26.88-2.38.88c-.91,0-1.58-.24-2.01-.72-.43-.48-.64-1.13-.64-1.93,0-.39.06-.78.2-1.17.13-.39.32-.75.57-1.07.25-.33.56-.61.94-.84.38-.23.81-.39,1.31-.47Z"/>
            <path class="cls-5" d="M413.11,330.28h.2c.31,0,.59.08.82.23l.16.16c.44.26.81.68,1.11,1.25.3.57.45,1.16.45,1.76,0,.7-.23,1.35-.7,1.93s-1.26.88-2.38.88c-.91,0-1.58-.24-2.01-.72-.43-.48-.64-1.13-.64-1.93,0-.39.06-.78.2-1.17.13-.39.32-.75.57-1.07.25-.33.56-.61.94-.84.38-.23.81-.39,1.31-.47Z"/>
            <path class="cls-5" d="M424.44,330.28h.2c.31,0,.59.08.82.23l.16.16c.44.26.81.68,1.11,1.25.3.57.45,1.16.45,1.76,0,.7-.23,1.35-.7,1.93s-1.26.88-2.38.88c-.91,0-1.58-.24-2.01-.72-.43-.48-.64-1.13-.64-1.93,0-.39.06-.78.2-1.17.13-.39.32-.75.57-1.07.25-.33.56-.61.94-.84.38-.23.81-.39,1.31-.47Z"/>
          </g>
          <g>
            <path class="cls-5" d="M339.09,297.83c.16-.12.51-.18,1.05-.18l5.62,1.46c1.41.31,2.72.95,3.96,1.9,1.23.96,2.33,2.03,3.31,3.22.98,1.19,1.79,2.43,2.43,3.72s1.08,2.42,1.32,3.4c.27,1.09.41,2.31.41,3.63,0,.86-.07,1.84-.21,2.93-.14,1.09-.37,2.19-.7,3.28-.33,1.09-.78,2.14-1.35,3.13-.57,1-1.3,1.85-2.2,2.55-1.13.9-2.01,1.56-2.64,1.99-.63.43-1.18.76-1.67,1-.49.23-1.04.44-1.64.62-.61.18-1.48.46-2.61.85-.31.08-.55.12-.7.12-.43,0-.81-.11-1.14-.32-.33-.21-.54-.32-.62-.32h-.12s-.26.14-.67.41-.79.41-1.14.41c-.55,0-1.1-.18-1.67-.53-.57-.35-.85-.9-.85-1.64,0-5.08-.23-10.08-.67-15-.45-4.92-.91-9.94-1.38-15.06.31-1.21,1.09-1.91,2.34-2.11.59,0,1.07.14,1.46.41l.06.12ZM342.02,327.07l-.06.12s.04.06.12.06h.26c.1,0,.22-.04.38-.12.7-.23,1.44-.47,2.23-.7.78-.23,1.54-.56,2.29-.97.74-.41,1.45-.97,2.14-1.67.68-.7,1.32-1.66,1.9-2.87.86-1.84,1.29-3.69,1.29-5.57s-.42-3.74-1.26-5.6c-.84-1.85-2.08-3.43-3.72-4.72-.9-.66-1.88-1.19-2.93-1.58-1.05-.39-2.05-.7-2.99-.94l-1.41-.35c.19,2.03.39,4.13.59,6.3.19,2.17.38,4.33.56,6.47.18,2.15.31,4.26.41,6.33.1,2.07.17,4,.21,5.8Z"/>
            <path class="cls-5" d="M367.69,329.06h.29c.47,0,.88.12,1.23.35l.23.23c.66.39,1.22,1.02,1.67,1.88.45.86.67,1.74.67,2.64,0,1.05-.35,2.02-1.05,2.9s-1.9,1.32-3.57,1.32c-1.37,0-2.37-.36-3.02-1.08-.64-.72-.97-1.69-.97-2.9,0-.59.1-1.17.29-1.76.19-.59.48-1.12.85-1.61.37-.49.84-.91,1.41-1.26.57-.35,1.22-.59,1.96-.7Z"/>
          </g>
        </g>
      </g>
      <path id="CursorHand" class="cls-5" d="M540,362.5v27s-.06.66-.18,1.81v.02c-.7,6.55-3.42,28.77-8.82,34.17-9,9-18,9-27,9-8.21,0-31.4-14.98-35.41-24.44-.69-.39-1.34-.88-1.93-1.47l-24.36-24.36c-3.51-3.52-3.51-9.22,0-12.73,1.76-1.76,4.06-2.63,6.36-2.63s4.61.87,6.37,2.63l12.97,12.97v-66.97c0-4.97,4.03-9,9-9,2.48,0,4.74,1.01,6.36,2.64,1.63,1.62,2.64,3.88,2.64,6.36v40.23c1.5-3.67,4.51-6.94,7.97-6.94h1.03c3.65,0,6.79,3.63,8.19,7.53,1.42-3.84,4.55-7.36,8.19-7.36h1.62c3.64,0,6.77,3.52,8.18,7.35,1.43-3.73,4.55-7.06,8.17-7.06h1.65c4.97,0,9,6.28,9,11.25Z"/>
    </g>
  </g>
</svg>