<?xml version="1.0" encoding="UTF-8"?>
<svg id="Layer_2" data-name="Layer 2" xmlns="http://www.w3.org/2000/svg" viewBox="0 0 90 90">
  <defs>
    <style>
      .cls-1 {
        fill: #4d2f2e;
        stroke-width: 0px;
      }
    </style>
  </defs>
  <g id="Layer_1-2" data-name="Layer 1">
    <path id="SwapTheQuestionDark" class="cls-1" d="M45,0C20.15,0,0,20.15,0,45s20.15,45,45,45,45-20.15,45-45S69.85,0,45,0ZM68.84,72.67c-10.48,10.17-28.7,11.56-41.63,3.45l-.96,6.1-3.92-7.82-3.92-7.82,9.91,1.75,9.91,1.75-6.98,1.86c10.18,6.24,24.41,5.11,32.62-2.85.99-.96,1.85-1.98,2.57-3.04l5.16,3.48c-.81,1.09-1.72,2.14-2.75,3.13ZM43.99,47.62l-.14,4.44h-3.7l-.19-7.39h1.36c3.09,0,5.5-.47,7.25-1.4,1.75-.94,2.62-2.7,2.62-5.28,0-1.87-.56-3.35-1.68-4.44-1.12-1.09-2.64-1.64-4.54-1.64s-3.45.52-4.56,1.57c-1.11,1.05-1.66,2.47-1.66,4.28h-4.02c0-1.87.42-3.52,1.26-4.94.84-1.42,2.04-2.52,3.58-3.3,1.54-.78,3.33-1.17,5.36-1.17,3.09,0,5.58.87,7.48,2.62,1.9,1.75,2.85,4.08,2.85,7.02,0,3.27-1.01,5.7-3.04,7.27-2.03,1.58-4.77,2.36-8.23,2.36ZM44.79,58.75c0,.81-.27,1.49-.82,2.06-.55.56-1.21.84-1.99.84s-1.49-.28-2.06-.84c-.56-.56-.84-1.25-.84-2.06s.28-1.5.84-2.06c.56-.56,1.25-.84,2.06-.84s1.44.28,1.99.84c.55.56.82,1.25.82,2.06ZM61.68,22.02l-9.91-1.75,6.98-1.86c-10.18-6.24-24.41-5.11-32.61,2.85-.99.96-1.85,1.98-2.57,3.04l-5.15-3.48c.8-1.09,1.72-2.14,2.75-3.13,10.48-10.17,28.7-11.56,41.63-3.45l.96-6.1,3.92,7.82,3.92,7.81-9.91-1.75Z"/>
  </g>
</svg>