<?xml version="1.0" encoding="UTF-8"?>
<svg id="Layer_2" data-name="Layer 2" xmlns="http://www.w3.org/2000/svg" viewBox="0 0 101.31 168.89">
  <defs>
    <style>
      .cls-1 {
        fill: #4d2f2e;
      }

      .cls-1, .cls-2 {
        stroke-width: 0px;
      }

      .cls-2 {
        fill: #dfdac4;
      }
    </style>
  </defs>
  <g id="Layer_1-2" data-name="Layer 1">
    <g id="Unlocked">
      <g>
        <path class="cls-2" d="M15.92,81.94c-.08-1.19-.13-2.4-.13-3.59,0-2.22-.04-4.64-.08-7.21-.14-8.36-.29-17.83.73-27.33C19.55,14.94,32.21,1.5,56.3,1.5s36.26,12.93,39.66,40.65h-10.06c-3.19-20.24-12.88-30.09-29.6-30.09s-26.82,10.26-29.8,31.38c-1.25,8.89-1.12,18.3-1.01,25.86.03,1.99.06,3.87.06,5.59,0,2.38.18,4.74.53,7.05h-10.16Z"/>
        <path class="cls-1" d="M56.3,3c22.23,0,34.35,11.99,37.95,37.65h-7.08c-3.51-19.97-13.89-30.09-30.87-30.09s-28.22,10.99-31.28,32.67c-1.27,9.01-1.13,18.48-1.02,26.09.03,1.99.06,3.87.06,5.57,0,1.86.11,3.72.32,5.55h-7.03c-.03-.7-.04-1.4-.04-2.09,0-2.24-.04-4.66-.08-7.23-.14-8.32-.29-17.74.72-27.15C20.94,16.02,33.13,3,56.3,3M56.3,0C26.1,0,17.34,21.45,14.95,43.65c-1.35,12.59-.66,25.41-.66,34.7,0,1.72.09,3.42.25,5.09h13.32c-.53-2.74-.82-5.61-.82-8.55,0-8.28-.63-20.15.94-31.24,2.23-15.83,8.94-30.09,28.31-30.09s26.08,14.25,28.31,30.09h13.04C95.26,21.45,86.5,0,56.3,0h0Z"/>
      </g>
      <g>
        <rect class="cls-2" x="1.5" y="75.15" width="98.31" height="92.25" rx="17.51" ry="17.51"/>
        <path class="cls-1" d="M82.3,76.65c8.83,0,16.01,7.18,16.01,16.01v57.24c0,8.83-7.18,16.01-16.01,16.01H19.01c-8.83,0-16.01-7.18-16.01-16.01v-57.24c0-8.83,7.18-16.01,16.01-16.01h63.3M82.3,73.65H19.01c-10.5,0-19.01,8.51-19.01,19.01v57.24c0,10.5,8.51,19.01,19.01,19.01h63.3c10.5,0,19.01-8.51,19.01-19.01v-57.24c0-10.5-8.51-19.01-19.01-19.01h0Z"/>
      </g>
      <path class="cls-1" d="M34.89,142.5l9.11-18.91c-3.64-2.23-6.06-6.25-6.06-10.83,0-7.02,5.69-12.71,12.71-12.71s12.7,5.69,12.7,12.71c0,4.72-2.57,8.84-6.38,11.03l9.44,18.71h-31.52Z"/>
    </g>
  </g>
</svg>