<?xml version="1.0" encoding="UTF-8"?>
<svg id="Layer_2" data-name="Layer 2" xmlns="http://www.w3.org/2000/svg" viewBox="0 0 412.24 447.64">
  <defs>
    <style>
      .cls-1 {
        fill: none;
        stroke: #4d2f2e;
        stroke-miterlimit: 10;
        stroke-width: 10px;
      }

      .cls-2 {
        fill: #4d2f2e;
        stroke-width: 0px;
      }
    </style>
  </defs>
  <g id="Layer_1-2" data-name="Layer 1">
    <g id="WalkAwayDark">
      <polyline class="cls-1" points="286.87 267.34 286.87 389.85 15.81 389.85 15.81 57.8 286.87 57.8 286.87 180.31"/>
      <path class="cls-2" d="M164.63.31L6.78,54.33c-3.96,1.35-6.78,6.88-6.78,13.28v316.58c0,6.48,2.89,12.05,6.92,13.33l157.85,49.85c5.32,1.69,10.29-4.75,10.29-13.32V13.59c0-8.66-5.07-15.11-10.43-13.28ZM148.52,243.3c-4.68,0-8.47-8.72-8.47-19.48s3.79-19.48,8.47-19.48,8.47,8.72,8.47,19.48-3.79,19.48-8.47,19.48Z"/>
      <polygon class="cls-2" points="412.24 223.82 367.23 249.8 322.22 275.79 322.22 252.05 235.58 252.05 235.58 195.59 322.22 195.59 322.22 171.85 367.23 197.83 412.24 223.82"/>
    </g>
  </g>
</svg>