<svg version="1.1" viewBox="0.0 0.0 2880.0 288.0" fill="none" stroke="none" stroke-linecap="square" stroke-miterlimit="10" xmlns:xlink="http://www.w3.org/1999/xlink" xmlns="http://www.w3.org/2000/svg"><clipPath id="g34116e332f751ee8_1.0"><path d="m0 0l2880.0 0l0 288.0l-2880.0 0l0 -288.0z" clip-rule="nonzero"/></clipPath><g clip-path="url(#g34116e332f751ee8_1.0)"><path fill="#000000" fill-opacity="0.0" d="m0 0l2880.0 0l0 288.0l-2880.0 0z" fill-rule="evenodd"/><path fill="#d1c8b4" d="m1040.7257 144.0l159.70972 -133.39502l479.12915 0l159.70972 133.39502l-159.70972 133.39502l-479.12915 0z" fill-rule="evenodd"/><path stroke="#4d2f2e" stroke-width="4.0" stroke-linejoin="round" stroke-linecap="butt" d="m1040.7257 144.0l159.70972 -133.39502l479.12915 0l159.70972 133.39502l-159.70972 133.39502l-479.12915 0z" fill-rule="evenodd"/><defs><linearGradient id="g34116e332f751ee8_1.1" gradientUnits="userSpaceOnUse" gradientTransform="matrix(0.0 -32.26369725472268 32.26369725472268 0.0 0.0 0.0)" spreadMethod="pad" x1="-4.558923944787881" y1="0.045517387343069676" x2="-4.5654945965847755" y2="32.30921397299386"><stop offset="0.0" stop-color="#4d2f2e" stop-opacity="0.0"/><stop offset="0.27" stop-color="#4d2f2e"/><stop offset="1.0" stop-color="#4d2f2e"/></linearGradient></defs><path fill="url(#g34116e332f751ee8_1.1)" d="m1.4698163 147.08775l0 -6.173233l1040.9448 0l0 6.173233z" fill-rule="evenodd"/><defs><linearGradient id="g34116e332f751ee8_1.2" gradientUnits="userSpaceOnUse" gradientTransform="matrix(0.0 32.263695568988595 -32.263695568988595 0.0 0.0 0.0)" spreadMethod="pad" x1="4.367587504480752" y1="-89.22736255636268" x2="4.361017170116442" y2="-56.96366765638136"><stop offset="0.0" stop-color="#4d2f2e" stop-opacity="0.0"/><stop offset="0.27" stop-color="#4d2f2e"/><stop offset="1.0" stop-color="#4d2f2e"/></linearGradient></defs><path fill="url(#g34116e332f751ee8_1.2)" d="m2878.8032 140.91452l0 6.173233l-1040.945 0l0 -6.173233z" fill-rule="evenodd"/></g></svg>